<svg xmlns="http://www.w3.org/2000/svg" width="287" height="97" viewBox="0 0 287 97">
    <g fill="none" fill-rule="evenodd">
        <path fill="#505050" d="M162.86 89.546h-1.038v-9.688h-1.153v-.922h1.153v-4.73c0-.806 0-1.96.461-2.651.462-.808 1.384-1.27 2.422-1.27.346 0 .577 0 .923.116v.923c-.231 0-.577-.115-.807-.115-1.846 0-1.846 1.845-1.846 3.114v4.613h2.653v.922h-2.653v9.688h-.115zM177.622 84.24c0 3.115-2.422 5.537-5.65 5.537-3.115 0-5.537-2.537-5.537-5.536 0-3.114 2.422-5.536 5.536-5.536 3.23-.115 5.651 2.307 5.651 5.536m-10.034 0c0 2.422 1.961 4.613 4.383 4.613 2.653 0 4.613-1.96 4.613-4.613 0-2.653-1.96-4.613-4.613-4.613-2.537 0-4.383 2.076-4.383 4.613M181.428 80.204c.46-.923 1.269-1.615 2.307-1.615.46 0 .807.116 1.153.231l-.577.923c-.23-.116-.461-.23-.692-.23-2.306 0-2.191 2.882-2.191 4.497v5.42h-1.038V78.82h1.038v1.384zM209.107 75.13l-6.112 14.993-5.997-14.993-3.114 14.416h-1.038l3.69-17.991 6.343 15.8 6.459-15.8 3.69 17.99h-1.038zM215.335 84.24c-.115 2.654 1.845 4.499 4.267 4.499 1.615 0 2.999-1.038 3.806-2.422l.923.46c-.923 1.846-2.653 2.884-4.73 2.884-3.113 0-5.19-2.537-5.19-5.535 0-3 2.077-5.536 5.19-5.536 3.23 0 5.19 2.537 5.076 5.65h-9.342zm8.188-.922c-.23-1.96-1.845-3.69-4.036-3.69s-3.921 1.73-4.152 3.69h8.188zM228.367 80.204c.577-1.038 1.615-1.615 2.768-1.615 1.384 0 2.422.692 2.998 1.961.577-1.269 1.73-1.96 3.114-1.96 2.768 0 3.345 1.845 3.345 4.151v6.69h-1.038v-6.805c0-1.615-.231-3.114-2.307-3.114-2.191 0-2.768 1.961-2.768 3.806v6.112h-1.038v-6.573c0-1.615-.346-3.345-2.421-3.345-2.192 0-2.653 2.307-2.653 4.037v5.881h-1.038V78.82h1.038v1.384zM244.282 70.516h1.038V80.78c.923-1.383 2.422-2.076 4.152-2.076 3.23 0 5.19 2.422 5.19 5.537 0 3.114-2.076 5.65-5.305 5.65-1.615 0-3.23-.806-4.037-2.19v1.96h-1.038V70.517zm9.342 13.61c0-2.308-1.73-4.499-4.152-4.499-2.653 0-4.267 1.962-4.267 4.499 0 2.536 1.614 4.612 4.152 4.612 2.767 0 4.267-2.19 4.267-4.612zM257.43 84.24c-.115 2.654 1.845 4.499 4.267 4.499 1.615 0 2.999-1.038 3.806-2.422l.923.46c-.923 1.846-2.653 2.884-4.73 2.884-3.113 0-5.19-2.537-5.19-5.535 0-3 2.077-5.536 5.19-5.536 3.23 0 5.19 2.537 5.076 5.65h-9.342zm8.188-.922c-.23-1.96-1.845-3.69-4.036-3.69s-3.921 1.73-4.152 3.69h8.188zM270.462 80.204c.46-.923 1.269-1.615 2.307-1.615.46 0 .807.116 1.153.231l-.577.923c-.231-.116-.461-.23-.692-.23-2.306 0-2.191 2.882-2.191 4.497v5.42h-1.038V78.82h1.038v1.384zM280.61 80.78a2.054 2.054 0 0 0-1.844-1.152c-.923 0-1.846.692-1.846 1.614 0 2.538 5.19 1.269 5.19 5.19 0 1.96-1.5 3.345-3.46 3.345-1.73 0-3.23-1.038-3.69-2.768l1.038-.346c.346 1.268 1.268 2.19 2.652 2.19 1.384 0 2.422-1.037 2.422-2.421 0-1.27-1.038-1.73-2.076-2.076-1.5-.576-3.114-1.153-3.114-2.998 0-1.615 1.384-2.653 2.884-2.653 1.038 0 2.306.692 2.768 1.73l-.923.346z"/>
        <path fill="#005487" d="M14.472 32.488a24.665 24.665 0 0 1 6.057-.449C24.793 16.895 37.694 5.23 53.96 3.882c1.907-.113 3.814-.225 5.61-.113A35.454 35.454 0 0 1 71.01 6.35c6.17 2.468 11.556 6.394 15.706 11.442a39.753 39.753 0 0 1 7.629 15.033c.56.224 1.346.56 2.019 1.01-.224-1.235-.561-2.357-.897-3.59-2.133-6.956-5.947-13.238-10.995-18.174-2.692-2.58-5.722-4.936-8.974-6.73-3.478-1.908-7.18-3.367-11.106-4.264A67.065 67.065 0 0 0 57.55.067C46.105-.606 34.553 3.77 26.25 11.96c-4.823 4.711-8.526 10.657-10.768 17.276-.337 1.01-.673 2.131-1.01 3.253"/>
        <path fill="#006EBC" d="M281.368 35.199a2.745 2.745 0 0 1 2.756-2.756 2.745 2.745 0 0 1 2.757 2.756 2.746 2.746 0 0 1-2.757 2.757 2.746 2.746 0 0 1-2.756-2.757zm5.207 0a2.419 2.419 0 0 0-2.45-2.45 2.419 2.419 0 0 0-2.45 2.45 2.419 2.419 0 0 0 2.45 2.45 2.419 2.419 0 0 0 2.45-2.45zm-1.072 1.53h-.46l-.919-1.377h-.765v1.378h-.306v-3.062h1.378c.765 0 1.072.306 1.072.765 0 .613-.46.766-.919.766l.92 1.53zm-1.379-1.683c.46 0 1.072 0 1.072-.46s-.459-.46-.765-.46h-.919v.92h.612z"/>
        <path fill="#005487" d="M6.282 63.339l-.449 2.468H0L6.955 26.43h5.834l-2.244 12.565c1.683-1.234 3.365-2.02 5.048-2.58 1.683-.562 3.478-.785 5.385-.785 4.263 0 7.74 1.57 10.208 4.598 2.468 3.03 3.366 6.731 2.581 10.994-.786 4.264-2.917 7.965-6.507 10.995-3.59 3.029-7.516 4.6-11.779 4.6-3.702 0-6.843-1.122-9.199-3.478M20.08 41.127c-2.804 0-5.384 1.01-7.628 2.916-2.356 1.907-3.702 4.376-4.15 7.068-.449 2.805.111 5.16 1.682 7.18 1.571 2.019 3.814 2.917 6.62 2.917 2.803 0 5.271-1.01 7.627-2.917 2.356-1.907 3.702-4.375 4.151-7.18.45-2.692-.112-5.16-1.683-7.067-1.683-1.907-3.814-2.917-6.619-2.917M40.386 65.806h-5.833l6.955-39.264h5.833zM57.325 36.64l-2.468 14.022-.224 1.234c-.337 1.907-.449 3.702-.225 5.16.112 1.458.786 2.58 1.795 3.253 1.01.674 2.244 1.01 3.702 1.01 1.46 0 2.805-.449 4.375-1.234 1.46-.785 2.58-2.019 3.254-3.814.673-1.683 1.234-3.814 1.682-6.17l2.356-13.574h5.946l-5.16 29.167h-5.946l.336-2.243c-1.234 1.01-2.58 1.907-4.15 2.355a13.228 13.228 0 0 1-4.6.786c-1.907 0-3.926-.56-5.833-1.57s-3.14-2.693-3.59-4.937c-.449-2.244-.449-4.936.112-8.189l2.805-15.594h5.833v.337zM91.877 61.32c1.795 0 3.478-.45 5.16-1.235 1.571-.785 3.03-2.019 4.263-3.478h6.17c-1.57 3.03-3.926 5.385-7.067 7.404-3.029 1.907-6.17 2.917-9.423 2.917-4.263 0-7.629-1.57-10.209-4.599-2.468-3.029-3.365-6.73-2.692-10.994.785-4.375 2.916-7.965 6.506-10.994 3.59-3.029 7.516-4.487 11.78-4.487 4.262 0 7.74 1.458 10.208 4.487 2.468 3.03 3.365 6.731 2.692 10.994l-.336 1.346H83.463c-.112 2.356.673 4.375 2.356 6.058 1.571 1.683 3.59 2.58 6.058 2.58m-6.955-13.798h18.734c-.449-1.795-1.458-3.366-2.917-4.6-1.458-1.234-3.253-1.795-5.272-1.795s-4.039.561-5.946 1.795-3.477 2.805-4.599 4.6"/>
        <path fill="#0F6DBE" d="M123.625 66.816c-4.263 0-7.628-1.57-10.096-4.599s-3.366-6.73-2.693-10.994c.785-4.375 2.917-7.965 6.507-10.994s7.516-4.487 11.779-4.487c1.907 0 3.59.224 5.048.785 1.458.561 2.805 1.458 4.15 2.58l.45-2.468h5.945l-5.16 29.167h-6.058l.449-2.468c-3.141 2.356-6.62 3.478-10.321 3.478m-7.404-15.593c-.45 2.804.112 5.16 1.683 7.18 1.57 2.02 3.814 2.916 6.618 2.916 2.805 0 5.273-1.01 7.629-2.917 2.356-2.019 3.702-4.375 4.263-7.179.448-2.805-.112-5.16-1.683-7.068-1.57-1.907-3.814-2.917-6.62-2.917-2.803 0-5.271 1.01-7.627 2.917-2.356 1.907-3.702 4.263-4.263 7.068M168.498 56.495h6.17c-1.683 3.03-3.926 5.497-7.067 7.404-3.03 1.907-6.171 2.917-9.424 2.917-4.263 0-7.628-1.57-10.208-4.6-2.468-3.029-3.366-6.73-2.693-10.994.785-4.375 2.917-7.964 6.507-10.993s7.516-4.488 11.779-4.488c3.253 0 6.17.898 8.526 2.805s3.814 4.375 4.375 7.404h-6.17c-.673-1.458-1.683-2.58-3.03-3.478-1.345-.897-2.916-1.346-4.6-1.346-2.803 0-5.271 1.01-7.627 2.917-2.356 2.02-3.702 4.375-4.151 7.067-.448 2.805.113 5.161 1.683 7.18 1.57 2.02 3.814 2.917 6.619 2.917 1.795 0 3.477-.449 5.16-1.347 1.57-.673 3.029-1.907 4.15-3.365M200.582 56.495h6.17c-1.683 3.03-3.926 5.497-7.067 7.404-3.03 1.907-6.17 2.917-9.424 2.917-4.263 0-7.628-1.57-10.208-4.6-2.468-3.029-3.366-6.73-2.693-10.994.786-4.375 2.917-7.964 6.507-10.993s7.516-4.488 11.779-4.488c3.253 0 6.17.898 8.526 2.805s3.814 4.375 4.375 7.404h-6.17c-.673-1.458-1.683-2.58-3.03-3.478-1.345-.897-2.916-1.346-4.598-1.346-2.805 0-5.273 1.01-7.63 2.917-2.355 2.02-3.701 4.375-4.15 7.067-.448 2.805.113 5.161 1.683 7.18 1.57 2.02 3.814 2.917 6.619 2.917 1.795 0 3.478-.449 5.16-1.347 1.57-.673 2.917-1.907 4.15-3.365M223.243 61.32c1.795 0 3.478-.45 5.16-1.235 1.57-.785 3.029-2.019 4.263-3.478h6.17c-1.57 3.03-3.926 5.385-6.955 7.404-3.03 2.02-6.17 2.917-9.423 2.917-4.263 0-7.63-1.57-10.21-4.599-2.467-3.029-3.364-6.73-2.691-10.994.785-4.375 2.917-7.965 6.506-10.994 3.59-3.029 7.517-4.487 11.779-4.487 4.263 0 7.74 1.458 10.209 4.487 2.468 3.03 3.366 6.731 2.692 10.994l-.336 1.458h-25.465c-.113 2.356.673 4.375 2.355 6.058 1.459 1.571 3.478 2.468 5.946 2.468m-6.955-13.798h18.734c-.45-1.795-1.458-3.366-2.917-4.6-1.458-1.234-3.253-1.795-5.272-1.795-2.02 0-4.04.561-5.946 1.795-1.907 1.234-3.477 2.805-4.6 4.6M260.824 44.267h-5.16c.112-.785 0-1.458-.225-2.13-.224-.675-.673-1.123-1.234-1.235-.561-.225-1.122-.225-1.458-.225-.785 0-1.46.225-2.02.561-.56.45-1.01.898-1.234 1.346-.336.561-.448 1.122-.673 1.795 0 1.234.337 2.02 1.122 2.468.785.45 2.356 1.122 4.6 2.02 2.243.897 3.702 2.131 4.263 3.701.56 1.571.785 3.142.448 4.6-.336 1.683-1.01 3.253-2.131 4.824a11.448 11.448 0 0 1-3.926 3.477c-1.46.786-3.03 1.234-4.488 1.234-2.131 0-3.814-.336-5.048-.897-1.234-.56-2.131-1.346-2.804-2.468-.561-1.01-1.01-2.132-1.122-3.365a13.85 13.85 0 0 1 .112-3.703h5.272c0 1.234 0 2.244.337 2.917.224.786.673 1.234 1.458 1.571.786.336 1.347.561 2.02.561.897 0 1.57-.225 2.243-.56.673-.338 1.122-.899 1.57-1.46.45-.56.674-1.234.786-1.795.112-.673.112-1.234-.112-1.794s-.45-1.01-.785-1.347c-.337-.336-1.795-.897-4.375-1.907-2.468-1.009-4.04-2.13-4.6-3.59-.561-1.346-.673-2.804-.45-4.375.226-1.458.787-2.804 1.572-4.15a9.043 9.043 0 0 1 3.253-3.254c1.346-.785 2.468-1.346 3.59-1.458 1.122-.112 1.795-.224 2.13-.224 1.236 0 2.357.224 3.367.673 1.009.448 1.907 1.122 2.58 2.131.673.898 1.122 1.907 1.234 2.805.112 1.234.112 2.243-.112 3.253M281.128 44.267h-5.16c.112-.785 0-1.458-.225-2.13-.224-.675-.673-1.123-1.233-1.235-.561-.225-1.123-.225-1.459-.225a3.88 3.88 0 0 0-2.018.561c-.562.45-1.01.898-1.235 1.346-.337.561-.449 1.122-.673 1.795 0 1.234.337 2.02 1.122 2.468.786.45 2.356 1.122 4.6 2.02 2.243.897 3.702 2.131 4.263 3.701.56 1.571.784 3.142.448 4.6-.337 1.683-1.01 3.253-2.132 4.824a11.448 11.448 0 0 1-3.925 3.477c-1.46.786-3.03 1.234-4.488 1.234-2.131 0-3.814-.336-5.048-.897-1.234-.56-2.131-1.346-2.804-2.468-.562-1.01-1.01-2.132-1.123-3.365a13.934 13.934 0 0 1 .113-3.703h5.272c0 1.234 0 2.244.224 2.917.225.786.673 1.234 1.459 1.571.786.336 1.346.561 2.02.561.897 0 1.57-.225 2.243-.56.672-.338 1.121-.899 1.57-1.46.448-.56.673-1.234.785-1.795.113-.673.113-1.234-.111-1.794-.226-.56-.45-1.01-.786-1.347-.337-.336-1.794-.897-4.375-1.907-2.469-1.009-4.038-2.13-4.6-3.59-.56-1.346-.672-2.804-.448-4.375.224-1.458.784-2.804 1.57-4.15a9.043 9.043 0 0 1 3.254-3.254c1.346-.785 2.467-1.346 3.59-1.458 1.122-.112 1.795-.224 2.13-.224 1.235 0 2.357.224 3.367.673 1.009.448 1.906 1.122 2.58 2.131.785.898 1.122 1.907 1.233 2.805.225 1.234.113 2.243 0 3.253"/>
        <path fill="#005487" d="M61.364 91.945c-17.052 1.458-32.645-7.741-40.386-22.1-1.907.561-4.15 1.122-6.282 1.234 7.629 14.92 22.998 25.129 40.61 25.129 18.51 0 34.44-11.218 41.732-27.26-.898.448-1.795.897-2.805 1.234-6.506 11.891-18.51 20.529-32.87 21.763"/>
    </g>
</svg>
