<svg xmlns="http://www.w3.org/2000/svg" xmlns:xlink="http://www.w3.org/1999/xlink" width="340" height="57" viewBox="0 0 340 57">
    <defs>
        <path id="a" d="M0 .173V55.76h55.207V.173H0z"/>
        <path id="c" d="M12.797 16.405V.623H.357v15.782h12.44z"/>
    </defs>
    <g fill="none" fill-rule="evenodd">
        <path fill="#0080C7" d="M45.309 53.474c.44 0 1.088.076 1.088-.564 0-.487-.397-.549-.78-.549h-.89v1.113h.582zm1.464 1.75h-.455l-.893-1.449h-.698v1.45h-.383V52.09h1.361c.824 0 1.104.31 1.104.826 0 .616-.426.847-.978.86l.942 1.448zm.949-1.574c0-1.362-.988-2.421-2.343-2.421-1.361 0-2.355 1.059-2.355 2.421 0 1.377.994 2.447 2.355 2.447 1.355 0 2.343-1.07 2.343-2.447zm-5.14 0a2.8 2.8 0 0 1 2.797-2.797 2.791 2.791 0 0 1 2.782 2.797c0 1.556-1.242 2.813-2.782 2.813a2.803 2.803 0 0 1-2.796-2.813zM97.831 53.474c.443 0 1.092.076 1.092-.564 0-.487-.4-.549-.78-.549h-.892v1.113h.58zm1.468 1.75h-.455l-.894-1.449h-.699v1.45h-.384V52.09h1.36c.829 0 1.108.31 1.108.826 0 .616-.425.847-.978.86l.942 1.448zm.949-1.574c0-1.362-.984-2.421-2.34-2.421-1.362 0-2.357 1.059-2.357 2.421 0 1.377.995 2.447 2.357 2.447 1.356 0 2.34-1.07 2.34-2.447zm-5.139 0a2.801 2.801 0 0 1 2.799-2.797 2.793 2.793 0 0 1 2.782 2.797c0 1.556-1.246 2.813-2.782 2.813a2.803 2.803 0 0 1-2.799-2.813z"/>
        <g transform="translate(0 .431)">
            <mask id="b" fill="#fff">
                <use xlink:href="#a"/>
            </mask>
            <path fill="#0080C7" d="M39.842 55.761V40.316h15.365V15.614H39.842V.173h-24.48v15.441H0v24.702h15.363v15.445z" mask="url(#b)"/>
        </g>
        <path fill="#0080C7" d="M85.53 56.79c10.612-5.889 17.043-15.279 20.355-25.58 3.44-10.684 2.87-23.332-1.113-31.21-6.059 3.068-12.156 4.607-19.242 4.63-7.085.02-13.183-1.562-19.242-4.63-3.984 7.878-4.556 20.526-1.113 31.21 3.314 10.301 9.747 19.691 20.355 25.58"/>
        <path fill="#FFF" d="M13.439 23.062l10.183.991c1.911.262 2.133 2.127 1.628 3.249l-6.976 13.17.007-.02A15.265 15.265 0 0 1 12.47 28.44c0-1.89.346-3.705.972-5.381l-.002.003zM41.854 23.062l-10.185.991c-1.913.262-2.133 2.127-1.628 3.249l6.978 13.17-.011-.02a15.272 15.272 0 0 0 5.811-12.012c0-1.89-.343-3.705-.97-5.381l.005.003zM27.646 15.123c1.795 0 2.311 2.042 1.517 3.099-.715.932-.853 1.21-.815 2.088.03.739.706 1.643 2.25 1.678h10.8c-2.416-5.203-7.666-8.801-13.752-8.801s-11.337 3.598-13.756 8.801h10.8c1.544-.035 2.222-.94 2.254-1.678.036-.878-.101-1.156-.82-2.088-.789-1.057-.28-3.1 1.522-3.1M27.646 43.697c3.082 0 5.95-.922 8.342-2.514l.003.018-7.399-11.122c-.52-.715-1.347-.778-1.894 0L19.3 41.201l.002-.018a15.007 15.007 0 0 0 8.344 2.514M85.518 52.017c8.735-5.44 13.387-13.227 16.369-22.028 2.646-7.81 3.293-16.95.38-24.086-4.362 1.508-6.92 1.975-9.294 2.347-2.215.346-4.194.558-7.435.603h-.02c-3.24-.045-5.22-.257-7.429-.603-2.375-.372-4.934-.839-9.3-2.347-2.905 7.136-2.26 16.275.384 24.086 2.981 8.8 7.635 16.589 16.365 22.028h-.02z"/>
        <path fill="#0080C7" d="M14.949 25.317l7.71.714c.553.046.6.281.473.605L17.733 37a13.116 13.116 0 0 1-3.157-8.56c0-1.075.13-2.122.373-3.123M24.012 15.815c-.767 1.291-.146 2.97.582 3.769.137.135.07.282-.053.315l-6.831.005a13.107 13.107 0 0 1 6.302-4.09M40.339 25.317l-7.708.714c-.556.046-.601.281-.472.605L37.559 37a13.12 13.12 0 0 0 3.153-8.56c0-1.075-.129-2.122-.373-3.123M31.274 15.815c.77 1.291.147 2.97-.582 3.769-.134.135-.07.282.056.315l6.828.005a13.05 13.05 0 0 0-6.302-4.09M85.524 49.857c5.909-3.73 12.603-12.213 15.277-23.365 1.426-5.917 1.822-12.567-.028-17.84-2.65.708-5.117 1.294-7.67 1.639-2.552.35-5.078.597-7.565.614h-.017c-2.486-.017-5.012-.264-7.564-.614-2.558-.345-5.026-.931-7.667-1.639-1.854 5.273-1.454 11.923-.038 17.84 2.679 11.152 9.376 19.635 15.286 23.365h-.014zM27.431 32.593c.119-.155.29-.17.43 0l5.102 7.856a13.049 13.049 0 0 1-10.638 0l5.106-7.856c.142-.17.308-.155.43 0"/>
        <path fill="#FFF" d="M79.5 14.868c-2 1.044-2.691 3.497-1.796 5.477.779 1.717 2.314 2.855 4.098 3.386.894.271 1.798.339 2.724.38 1.13.057 2.153.091 3.245.37.232.06.483.195.605.42.29.552.027 1.15-.547 1.32-.01.957-.097 2.88-.097 2.88s4.635-.443 3.851-4.634c-.19-1.003-.975-2.031-1.868-2.497-2.326-1.196-4.876-.677-7.259-1.453-.8-.26-1.92-.66-2.135-1.566-.087-.364-.009-1.09.364-1.205.6-.194 1.265.313 2.139.514.549.128 1.093.126 1.528-.007.191-.056.475-.133.495-.243-.022-.097-.238-.183-.352-.242-.264-.14-.542-.204-.834-.314a10.87 10.87 0 0 1-1.446-.688c.456-.094 1.224-.117 1.675-.065.364.047 1.49.031 1.826-.057.074-.018.24-.086.165-.212-.13-.22-.35-.298-.496-.506-.33-.449-.618-.912-1.144-1.113-1.522-.588-3.223-.739-4.741.055"/>
        <path fill="#FFF" d="M87.232 29.82l.025-4.89s-.625-.132-1.5-.187c-1.137-.077-1.648-.063-1.648-.063l-.007.414s-.549.232-.632.38c-.04.068-.186.253-.114.437.448 1.207 1.07 2.381 1.244 3.674.848.116 1.597.094 2.632.236"/>
        <path fill="#FFF" d="M81.415 29.079c-.204 1.919 1.042 2.944 2.42 3.274 1.089.26 2.144.317 3.28.451.142.017.447.025.677.127.198.089.3.206.338.333.055.178.032.315-.086.456-.12.155-.447.242-.447.242l-.067 2.305s.923-.038 1.675-.488c.705-.429 1.143-.976 1.303-1.66.184-.795.058-1.572-.5-2.345-.373-.514-1.019-.881-1.672-1.11-1.353-.477-2.819-.405-4.223-.607-.213-.028-.408-.196-.428-.389-.036-.36.297-.522.297-.522s-.166-.553-.347-1.084c-.154-.406-.384-.969-.543-1.268a2.796 2.796 0 0 0-1.677 2.285"/>
        <path fill="#FFF" d="M87.115 33.34l-.037 4.14-1.03-.476-1.019-.426-.025-3.453c.916.109 1.333.12 2.11.216"/>
        <path fill="#FFF" d="M82.501 35.626c-.559 1.338.147 2.65 1.266 3.206.588.285 1.359.55 1.99.791.619.24 1.711.924 1.792 1.25.056.2-.18.396-.18.396l-.026 1.62s.67-.145 1.169-.558c.461-.387.801-.887.798-1.694-.006-.886-.412-1.577-1.666-2.309-.97-.575-2.146-1.032-3.062-1.442-.137-.058-.253-.32-.2-.48.055-.173.16-.233.16-.233l-.02-1.865s-.706.138-1.038.334c-.309.182-.77.485-.983.984"/>
        <path fill="#FFF" d="M86.943 41.127c.013-.137-.035-.154-.093-.245-.276-.286-.676-.489-.769-.544-.29-.17-.922-.408-.922-.408s.044 4.232.12 6.418c.018.5.295.627.769.653.58.038.748-.331.759-.543.022-.699.108-3.737.136-5.331M87.39 13.884c.21.157.21.167.271.479.145.676-.005 1.734.13 2.2.067.147.217.145.332.082.933-.508 1.568-1.378 2.507-1.78.447-.19 1.672.43 1.39 1.358-.135.435-.329.502-.6.786-.545.575-1.325 1.116-2.006 1.856-.46.507-1.012.874-1.37 1.444-.11.181-.296.43-.296.43-1.31-.269-2.626-.222-3.649-.43l-.003-1.526s1.043-.178 1.238-.692c.012-.043-.014-.222-.165-.33a2.717 2.717 0 0 0-.58-.307c1.046.165 1.696.342 2.703.784.068-.113.028-.366-.049-.45-.137-.155-.213-.207-.565-.293-.618-.16-2.293-.365-2.293-.365s.774-.006 1.421-.112c.319-.054.577-.115.648-.222.072-.162-.061-.41-.287-.642-.145-.161-.312-.325-.436-.491-.152-.213-.402-.596-.674-.839-.239-.21-.826-.518-.826-.518s-.109-.82.057-1.148c.125-.248.437-.387.605-.302.753.426 1.493.854 2.496 1.028M84.144 42.687a2.69 2.69 0 0 0-.75 1.67c-.068.773.107.987.302 1.407.158.341.528.32.658.004.109-.26-.046-.5.049-1.071.074-.411.4-.64.4-.64l-.03-1.88s-.293.154-.63.51"/>
        <path fill="#000" d="M84.088 15.459c-.193.138-.327.281-.545.316-.429.068-.368-.307-.662-.514-.185-.13-.353.034-.513-.268.62.018 1.44-.036 1.904.44-.057-.032-.159.009-.184.026"/>
        <path fill="#231F20" d="M129.617 15.932h1.22c2.398 0 3.64-.97 3.64-3.897 0-2.476-.813-3.531-3.275-3.531h-1.585v7.428zm0-8.073h1.37c1.906 0 2.655-.84 2.655-2.994 0-2.13-.62-3.035-2.783-3.035h-1.242v6.029zm-5.396 8.073h2.055V1.83h-2.055v-.646h8.094c2.676 0 4.797.56 4.797 3.165 0 2.433-1.927 3.53-4.112 3.682v.043c2.591.065 5.075 1.356 5.075 4.284 0 2.411-1.648 4.22-5.31 4.22h-8.544v-.646zM138.773 15.932h1.542V1.83h-1.542v-.646h1.327c1.093 0 2.206-.043 3.299-.13v14.878h1.542v.646h-6.168v-.646zM156.929 15.932h1.542v.646c-2.099.022-3.341.043-4.626.13V15.07h-.042c-.729 1.184-2.078 1.765-3.405 1.765-2.163 0-3.683-.775-3.683-3.552v-6.61h-1.542v-.646h1.327c1.092 0 2.206-.042 3.298-.129v8.03c0 1.658.793 1.874 1.671 1.874 1.37 0 2.376-1.14 2.376-3.445V6.674h-1.541v-.646h1.327c1.092 0 2.206-.042 3.298-.129v10.033zM166.365 10.12v-.991c0-1.228-.3-2.713-1.756-2.713-1.991 0-2.034 2.325-2.099 3.703h3.855zm-3.855.645v.926c0 1.916.343 4.241 2.785 4.241 1.798 0 2.934-1.034 3.64-2.583l.578.258c-.857 2.153-2.57 3.23-4.775 3.23-3.32 0-5.568-2.154-5.568-5.534 0-3.186 2.292-5.533 5.568-5.533 2.783 0 4.967 1.809 4.967 4.995h-7.195zM184.754 6.545h-.643c-.193-2.67-2.335-4.974-4.818-4.974-4.198 0-4.668 4.328-4.668 7.299 0 2.714.256 7.321 4.518 7.321 2.527 0 4.797-2.347 5.075-4.953h.642v4.35c-1.606.668-3.918 1.248-5.802 1.248-4.905 0-8.032-3.316-8.032-7.966 0-4.63 3.127-7.945 8.032-7.945 1.884 0 3.682.474 5.696 1.25v4.37zM185.708 15.932h1.541V6.674h-1.54v-.646h1.326c1.093 0 2.206-.042 3.299-.129v1.744h.042c.428-1.098 1.5-1.873 2.699-1.873 1.35 0 2.055.947 2.055 2.174 0 .883-.428 1.442-1.391 1.442-.836 0-1.307-.43-1.307-1.14 0-.625.043-.69.043-1.012 0-.259-.107-.43-.408-.43-1.241 0-1.733 2.906-1.733 4.585v4.543h1.542v.646h-6.168v-.646zM200.908 6.415c-2.228 0-2.228 2.369-2.228 4.888 0 2.52 0 4.888 2.228 4.888 2.226 0 2.226-2.369 2.226-4.888 0-2.52 0-4.888-2.226-4.888m0 10.421c-3.32 0-5.568-2.153-5.568-5.533 0-3.186 2.29-5.533 5.568-5.533 3.276 0 5.567 2.347 5.567 5.533 0 3.187-2.291 5.533-5.567 5.533M207.603 12.595h.642c.086 1.938 1.349 3.596 3.212 3.596 1.092 0 2.163-.43 2.163-1.551 0-2.475-5.868-1.378-5.868-5.555 0-2.217 1.693-3.315 3.769-3.315 1.606 0 2.484.366 3.319.689v2.778h-.642c-.15-1.508-1.307-2.822-2.826-2.822-.858 0-1.564.453-1.564 1.336 0 2.196 5.868 1.184 5.868 5.404 0 2.39-2.142 3.681-4.304 3.681-1.629 0-2.978-.473-3.77-.753v-3.488zM216.763 12.595h.642c.086 1.938 1.35 3.596 3.212 3.596 1.092 0 2.163-.43 2.163-1.551 0-2.475-5.868-1.378-5.868-5.555 0-2.217 1.693-3.315 3.77-3.315 1.606 0 2.484.366 3.319.689v2.778h-.643c-.15-1.508-1.306-2.822-2.826-2.822-.857 0-1.564.453-1.564 1.336 0 2.196 5.868 1.184 5.868 5.404 0 2.39-2.142 3.681-4.304 3.681-1.628 0-2.977-.473-3.769-.753v-3.488zM236.242 15.932h1.22c2.4 0 3.641-.97 3.641-3.897 0-2.476-.813-3.531-3.276-3.531h-1.585v7.428zm0-8.073h1.37c1.906 0 2.655-.84 2.655-2.994 0-2.13-.62-3.035-2.783-3.035h-1.242v6.029zm-5.396 8.073h2.056V1.83h-2.056v-.646h8.094c2.677 0 4.797.56 4.797 3.165 0 2.433-1.927 3.53-4.112 3.682v.043c2.592.065 5.075 1.356 5.075 4.284 0 2.411-1.649 4.22-5.31 4.22h-8.544v-.646zM245.4 15.932h1.54V1.83h-1.54v-.646h1.327c1.091 0 2.205-.043 3.297-.13v14.878h1.542v.646H245.4v-.646zM263.555 15.932h1.542v.646c-2.1.022-3.34.043-4.626.13V15.07h-.043c-.728 1.184-2.077 1.765-3.405 1.765-2.162 0-3.683-.775-3.683-3.552v-6.61h-1.542v-.646h1.328c1.093 0 2.206-.042 3.298-.129v8.03c0 1.658.793 1.874 1.67 1.874 1.37 0 2.377-1.14 2.377-3.445V6.674h-1.542v-.646h1.327c1.093 0 2.206-.042 3.299-.129v10.033zM272.99 10.12v-.991c0-1.228-.3-2.713-1.755-2.713-1.992 0-2.035 2.325-2.1 3.703h3.856zm-3.854.645v.926c0 1.916.342 4.241 2.784 4.241 1.799 0 2.934-1.034 3.64-2.583l.578.258c-.855 2.153-2.57 3.23-4.775 3.23-3.32 0-5.568-2.154-5.568-5.534 0-3.186 2.291-5.533 5.568-5.533 2.784 0 4.968 1.809 4.968 4.995h-7.195zM277.353 11.389h.75c.106 2.196 1.863 4.672 4.624 4.672 1.692 0 3.298-.69 3.298-2.54 0-3.81-8.437-2.562-8.437-7.967 0-3.272 2.677-4.629 5.01-4.629 1.265 0 2.378.216 4.327.947l.171 3.682h-.728c-.407-2.11-1.949-3.853-4.134-3.853-1.39 0-2.419.947-2.419 2.346 0 3.38 8.266 2.11 8.266 8.096 0 2.777-2.44 4.693-5.546 4.693-1.692 0-3.405-.323-4.99-1.011l-.192-4.436zM288.802 15.932h1.542V1.83h-1.542v-.646h1.328c1.092 0 2.205-.043 3.297-.13v6.439h.044c.728-1.142 1.905-1.723 3.405-1.723 2.161 0 3.682 1.162 3.682 3.552v6.61h1.543v.646h-6.168v-.646h1.541v-7.04c0-1.68-.791-2.089-1.67-2.089-1.199 0-2.377 1.163-2.377 2.972v6.157h1.543v.646h-6.168v-.646zM305.413.925c.92 0 1.67.754 1.67 1.68 0 .925-.75 1.679-1.67 1.679-.922 0-1.671-.754-1.671-1.679 0-.926.75-1.68 1.67-1.68zm-3.084 15.007h1.541V6.675h-1.541v-.647h1.327c1.092 0 2.206-.042 3.298-.129v10.033h1.542v.647h-6.167v-.647zM316.394 10.12v-.991c0-1.228-.3-2.713-1.756-2.713-1.992 0-2.035 2.325-2.1 3.703h3.856zm-3.855.645v.926c0 1.916.342 4.241 2.784 4.241 1.799 0 2.934-1.034 3.64-2.583l.578.258c-.856 2.153-2.569 3.23-4.775 3.23-3.319 0-5.568-2.154-5.568-5.534 0-3.186 2.292-5.533 5.568-5.533 2.784 0 4.968 1.809 4.968 4.995h-7.195zM320.264 15.932h1.54V1.83h-1.54v-.646h1.327c1.092 0 2.205-.043 3.298-.13v14.878h1.542v.646h-6.167v-.646z"/>
        <g transform="translate(326.777 .431)">
            <mask id="d" fill="#fff">
                <use xlink:href="#c"/>
            </mask>
            <path fill="#231F20" d="M5.838 6.243c-2.12 0-2.227 2.067-2.227 4.63 0 3.12.578 4.628 2.227 4.628 2.248 0 2.399-2.584 2.399-4.629 0-1.744-.15-4.629-2.399-4.629zm2.334 8.655H8.13c-.771 1.27-1.992 1.507-3.149 1.507-3.254 0-4.625-2.54-4.625-5.533 0-2.907 1.649-5.533 4.797-5.533 1.348 0 2.484.473 2.977 1.55h.042v-5.49H6.63V.753h1.328a42.04 42.04 0 0 0 3.298-.13v14.878h1.541v.646c-2.098.022-3.34.043-4.625.129v-1.378z" mask="url(#d)"/>
        </g>
        <path fill="#231F20" d="M130.11 32.24c-2.228 0-2.228 2.367-2.228 4.886 0 2.52 0 4.888 2.227 4.888s2.227-2.369 2.227-4.888c0-2.52 0-4.887-2.227-4.887m0 10.42c-3.319 0-5.568-2.152-5.568-5.533 0-3.186 2.292-5.533 5.568-5.533s5.568 2.347 5.568 5.533c0 3.186-2.292 5.533-5.568 5.533M136.204 41.755h1.542v-9.258h-1.542v-.646h1.542v-1.314c0-2.303 1.199-3.788 4.283-3.788.985 0 3.47.366 3.47 2.324 0 1.056-.494 1.508-1.329 1.508-1.092 0-1.37-.603-1.37-1.378 0-.861 0-1.808-.921-1.808-.942 0-1.05.796-1.05 1.614v2.842h1.778v.646h-1.777v9.258h1.777v.646h-6.403v-.646zM148.511 41.755h2.056V27.653h-2.056v-.646h7.452v.646h-2.056v14.102h2.056v.646h-7.452zM156.559 41.755h1.541V27.653h-1.541v-.646h1.327c1.093 0 2.206-.043 3.298-.13v14.878h1.543v.646h-6.168v-.646zM163.172 41.755h1.541V27.653h-1.541v-.646h1.327c1.092 0 2.205-.043 3.298-.13v14.878h1.542v.646h-6.167v-.646zM172.868 26.748c.92 0 1.67.754 1.67 1.68 0 .925-.75 1.679-1.67 1.679-.92 0-1.67-.754-1.67-1.68 0-.925.75-1.679 1.67-1.679zm-3.083 15.007h1.54v-9.258h-1.54v-.646h1.327c1.093 0 2.205-.043 3.298-.129v10.033h1.542v.646h-6.167v-.646zM176.397 41.755h1.542v-9.258h-1.542v-.646h1.328a42.04 42.04 0 0 0 3.298-.13v1.594h.043c.728-1.141 1.905-1.722 3.405-1.722 2.162 0 3.683 1.162 3.683 3.552v6.61h1.542v.646h-6.168v-.646h1.542v-7.04c0-1.68-.792-2.088-1.67-2.088-1.2 0-2.377 1.162-2.377 2.97v6.158h1.542v.646h-6.168v-.646zM196.176 32.24c-2.227 0-2.227 2.367-2.227 4.886 0 2.52 0 4.888 2.227 4.888s2.227-2.369 2.227-4.888c0-2.52 0-4.887-2.227-4.887m0 10.42c-3.319 0-5.567-2.152-5.567-5.533 0-3.186 2.29-5.533 5.567-5.533s5.567 2.347 5.567 5.533c0 3.186-2.29 5.533-5.567 5.533M205.527 26.748c.92 0 1.67.754 1.67 1.68 0 .925-.75 1.679-1.67 1.679-.92 0-1.67-.754-1.67-1.68 0-.925.75-1.679 1.67-1.679zm-3.083 15.007h1.541v-9.258h-1.541v-.646h1.327a42.34 42.34 0 0 0 3.298-.129v10.033h1.542v.646h-6.167v-.646zM209.27 38.418h.643c.086 1.938 1.35 3.596 3.212 3.596 1.092 0 2.163-.431 2.163-1.55 0-2.477-5.868-1.378-5.868-5.555 0-2.218 1.693-3.316 3.77-3.316 1.606 0 2.483.366 3.318.689v2.778h-.642c-.15-1.509-1.306-2.82-2.826-2.82-.857 0-1.564.451-1.564 1.334 0 2.195 5.868 1.184 5.868 5.404 0 2.39-2.142 3.681-4.304 3.681-1.628 0-2.977-.474-3.77-.754v-3.487z"/>
    </g>
</svg>
