<svg xmlns="http://www.w3.org/2000/svg" width="340" height="57" viewBox="0 0 340 57">
    <g fill="none" fill-rule="nonzero">
        <path fill="#0080C7" d="M42.606 53.385a2.794 2.794 0 1 1 5.587.013 2.794 2.794 0 0 1-5.587-.013zm5.144 0a2.35 2.35 0 1 0-2.344 2.432 2.323 2.323 0 0 0 2.337-2.432h.007zm-.947 1.567h-.47l-.886-1.438h-.681v1.445h-.382v-3.12h1.363c.824 0 1.104.306 1.104.824 0 .517-.423.844-.982.851l.934 1.438zm-1.472-1.738c.443 0 1.09.075 1.09-.558 0-.484-.395-.545-.783-.545h-.886v1.103h.58zM95.16 53.385a2.794 2.794 0 1 1 5.586.013 2.794 2.794 0 0 1-5.587-.013zm5.143 0a2.35 2.35 0 1 0-2.343 2.432 2.323 2.323 0 0 0 2.337-2.432h.006zm-.947 1.567H98.9l-.893-1.445h-.681v1.445h-.382v-3.114h1.363c.831 0 1.11.307 1.11.825 0 .517-.422.844-.98.851l.92 1.438zm-1.465-1.744c.443 0 1.09.075 1.09-.56 0-.483-.401-.544-.776-.544h-.906v1.11l.592-.006z"/>
        <path fill="#0080C7" d="M39.86 55.92V40.547H55.23V15.964H39.86V.6H15.372v15.364H0v24.584h15.372v15.371zM85.572 56.512c10.616-5.86 17.034-15.208 20.366-25.455C109.38 20.44 108.807 7.842 104.828 0a41.563 41.563 0 0 1-19.249 4.606A41.066 41.066 0 0 1 66.324 0c-3.986 7.842-4.558 20.44-1.118 31.057 3.319 10.22 9.75 19.596 20.366 25.455z"/>
        <path fill="#FFF" d="M13.443 22.948l10.22.988c1.915.26 2.133 2.12 1.63 3.23l-7.012 13.11a15.201 15.201 0 0 1-4.845-17.307l.007-.02zM41.877 22.948l-10.22.988c-1.916.26-2.134 2.12-1.63 3.23l7.012 13.11a15.208 15.208 0 0 0 4.844-17.307l-.006-.02zM27.657 15.051a1.935 1.935 0 0 1 1.519 3.087c-.715.927-.852 1.206-.818 2.044 0 .736.682 1.635 2.249 1.67H41.42a15.188 15.188 0 0 0-27.52 0h10.8c1.546-.035 2.22-.934 2.255-1.67.034-.872-.102-1.152-.818-2.044a1.935 1.935 0 0 1 1.52-3.087zM27.657 43.485a15.072 15.072 0 0 0 8.346-2.501l-7.386-11.052a1.083 1.083 0 0 0-1.894 0L19.31 40.998a15.079 15.079 0 0 0 8.347 2.5M85.559 51.784c8.742-5.41 13.395-13.164 16.352-21.92 2.65-7.774 3.298-16.87.382-23.97a48.629 48.629 0 0 1-9.273 2.282 48.377 48.377 0 0 1-7.44.6 48.247 48.247 0 0 1-7.455-.6 48.717 48.717 0 0 1-9.307-2.303c-2.91 7.1-2.262 16.196.381 23.97 3.025 8.756 7.645 16.49 16.38 21.94h-.02z"/>
        <path fill="#0080C7" d="M14.99 25.21l7.713.682c.552.047.6.28.47.6l-5.458 10.302A13.082 13.082 0 0 1 14.99 25.21zM24.025 15.74c-.77 1.287-.143 2.957.586 3.747a.177.177 0 0 1-.055.313h-6.84a13.123 13.123 0 0 1 6.309-4.06zM40.357 25.21l-7.713.682c-.559.047-.6.28-.47.6l5.403 10.302a13.096 13.096 0 0 0 2.78-11.584zM31.288 15.74c.77 1.287.15 2.957-.579 3.747-.136.136-.068.28.055.313h6.813a13.069 13.069 0 0 0-6.289-4.06zM85.566 49.61c5.914-3.707 12.612-12.135 15.276-23.248 1.424-5.887 1.819-12.503 0-17.75a61.731 61.731 0 0 1-7.693 1.608 59.183 59.183 0 0 1-7.57.614 59.156 59.156 0 0 1-7.57-.614 61.166 61.166 0 0 1-7.672-1.628c-1.853 5.246-1.458 11.863-.04 17.75 2.67 11.133 9.368 19.561 15.282 23.268h-.013zM27.445 32.433a.252.252 0 0 1 .43 0l5.103 7.815a13.123 13.123 0 0 1-10.643 0l5.11-7.815a.252.252 0 0 1 .43 0"/>
        <path fill="#FFF" d="M79.542 14.792a4.177 4.177 0 0 0-1.799 5.451 6.343 6.343 0 0 0 4.089 3.373c.889.239 1.804.365 2.725.375 1.091.011 2.178.134 3.243.368.25.051.469.2.607.415a.893.893 0 0 1-.545 1.315c0 .954-.096 2.869-.096 2.869s4.634-.443 3.85-4.613a3.809 3.809 0 0 0-1.867-2.487c-2.323-1.192-4.878-.681-7.263-1.444-.797-.26-1.922-.682-2.133-1.56-.088-.362 0-1.084.361-1.2.6-.19 1.268.314 2.14.511.5.13 1.025.13 1.526 0 .19-.054.477-.136.497-.245.02-.11-.238-.184-.354-.239a7.236 7.236 0 0 0-.831-.313c-.498-.192-.98-.42-1.445-.681a6.507 6.507 0 0 1 1.676-.069 8.21 8.21 0 0 0 1.826-.054c.075 0 .239-.082.164-.211-.075-.13-.354-.3-.497-.505a2.725 2.725 0 0 0-1.145-1.11 5.717 5.717 0 0 0-4.729.054z"/>
        <path fill="#FFF" d="M87.276 29.673v-4.865a11.672 11.672 0 0 0-1.5-.184c-1.11-.095-1.628-.095-1.628-.095v.409s-.552.232-.633.375c-.082.143-.184.252-.116.436a17.43 17.43 0 0 1 1.247 3.659c.845.15 1.594.13 2.63.265z"/>
        <path fill="#FFF" d="M81.457 28.937a2.889 2.889 0 0 0 2.419 3.257 27.8 27.8 0 0 0 3.277.45c.232.009.462.052.681.13a.552.552 0 0 1 .341.333.436.436 0 0 1-.088.457 1.042 1.042 0 0 1-.45.238l-.068 2.297a4.027 4.027 0 0 0 1.676-.484 2.63 2.63 0 0 0 1.301-1.65 2.725 2.725 0 0 0-.497-2.336 3.495 3.495 0 0 0-1.676-1.104c-1.363-.477-2.821-.402-4.225-.606a.49.49 0 0 1-.429-.389.545.545 0 0 1 .3-.518s-.164-.551-.348-1.076c-.156-.402-.381-.96-.545-1.26a2.787 2.787 0 0 0-1.67 2.261z"/>
        <path fill="#FFF" d="M87.16 33.176l-.034 4.088-1.036-.47-1.022-.423v-3.407c.893.11 1.315.116 2.092.212z"/>
        <path fill="#FFF" d="M82.54 35.43a2.473 2.473 0 0 0 1.268 3.21c.586.286 1.362.545 1.99.79.626.246 1.71.92 1.791 1.247.055.198-.184.396-.184.396v1.608a3.12 3.12 0 0 0 1.172-.552c.52-.4.817-1.027.797-1.683 0-.88-.415-1.567-1.669-2.297a30.178 30.178 0 0 0-3.066-1.437.457.457 0 0 1-.198-.477.409.409 0 0 1 .164-.232v-1.86c-.358.068-.706.18-1.036.334-.436.2-.797.534-1.029.954z"/>
        <path fill="#FFF" d="M86.99 40.923c0-.137-.034-.15-.096-.246a3.407 3.407 0 0 0-.77-.538 8.32 8.32 0 0 0-.92-.409s.041 4.211.123 6.385c0 .497.293.626.77.681.58.034.75-.327.756-.538.02-.723.103-3.748.137-5.335zM87.432 13.818c.212.157.212.164.273.477.143.681 0 1.724.13 2.187a.218.218 0 0 0 .333.082c.934-.504 1.567-1.363 2.508-1.772.45-.19 1.676.43 1.362 1.363-.136.43-.327.498-.6.784-.544.572-1.328 1.11-2.01 1.846-.495.439-.95.92-1.362 1.438-.109.177-.293.43-.293.43-1.308-.267-2.63-.219-3.652-.43V18.69s1.043-.177 1.24-.682a.388.388 0 0 0-.163-.327 2.725 2.725 0 0 0-.58-.306c.943.125 1.861.39 2.726.783a.49.49 0 0 0-.048-.45.845.845 0 0 0-.565-.292c-.62-.157-2.297-.361-2.297-.361.477-.005.953-.042 1.425-.11.32-.054.579-.115.68-.218.103-.102-.06-.408-.285-.64-.225-.232-.314-.32-.436-.49a5.165 5.165 0 0 0-.682-.839 5.764 5.764 0 0 0-.824-.518 2.8 2.8 0 0 1 .054-1.144.538.538 0 0 1 .607-.3 7.495 7.495 0 0 0 2.46 1.022zM84.182 42.476a2.67 2.67 0 0 0-.75 1.663c-.07.486.036.982.3 1.396a.34.34 0 1 0 .682 0c.109-.258-.048-.497.048-1.062.052-.256.195-.483.402-.64v-1.875c-.253.136-.483.31-.682.518z"/>
        <path fill="#0075C9" d="M84.128 15.385c-.154.147-.34.255-.545.314-.43.068-.368-.307-.682-.511-.184-.13-.354 0-.51-.266.62 0 1.437-.034 1.907.436a.225.225 0 0 0-.17.027z"/>
        <path fill="#231F20" d="M124.28 15.855h2.045V1.82h-2.044v-.64h8.101c2.678 0 4.77.558 4.77 3.148 0 2.418-1.929 3.515-4.089 3.665v.041c2.59.068 5.076 1.363 5.076 4.266 0 2.398-1.648 4.197-5.314 4.197h-8.544v-.64zm5.397-8.033h1.363c1.907 0 2.657-.838 2.657-2.978 0-2.139-.62-3.018-2.787-3.018h-1.24l.007 5.996zm0 8.033h1.22c2.398 0 3.645-.96 3.645-3.877 0-2.466-.81-3.515-3.277-3.515h-1.588v7.392zM138.841 15.855h1.52V1.82h-1.54v-.64h1.328c1.09 0 2.208-.041 3.298-.13v14.806h1.54v.64h-6.173l.027-.64zM157.006 15.855h1.54v.64c-2.098 0-3.345.042-4.626.13V14.99h-.041a3.952 3.952 0 0 1-3.407 1.758c-2.167 0-3.686-.77-3.686-3.536V6.643h-1.54v-.647h1.329c1.09 0 2.207-.04 3.298-.13v7.993c0 1.649.79 1.867 1.669 1.867 1.363 0 2.378-1.138 2.378-3.407V6.643h-1.54v-.647h1.329c1.09 0 2.207-.04 3.297-.13v9.99zM162.594 10.711v.92c0 1.908.34 4.217 2.786 4.217 1.8 0 2.937-1.028 3.639-2.568l.579.259a4.838 4.838 0 0 1-4.77 3.216c-3.318 0-5.573-2.14-5.573-5.506a5.342 5.342 0 0 1 5.573-5.505c2.787 0 4.968 1.799 4.968 4.967h-7.202zm3.856-.64v-.988c0-1.22-.3-2.726-1.758-2.726-1.99 0-2.044 2.317-2.098 3.686l3.856.028zM184.847 6.514h-.64c-.191-2.657-2.338-4.947-4.818-4.947-4.197 0-4.667 4.306-4.667 7.263 0 2.726.259 7.284 4.517 7.284 2.528 0 4.77-2.337 5.076-4.926h.64v4.327a16.714 16.714 0 0 1-5.804 1.24c-4.906 0-8.034-3.298-8.034-7.925 0-4.626 3.128-7.903 8.034-7.903 1.96.054 3.891.475 5.696 1.24v4.347zM185.8 15.855h1.575V6.643h-1.54v-.647h1.329c1.09 0 2.207-.04 3.297-.13v1.738h.041a2.93 2.93 0 0 1 2.726-1.867 1.976 1.976 0 0 1 2.044 2.167 1.267 1.267 0 0 1-1.363 1.437c-.838 0-1.308-.429-1.308-1.137 0-.709.04-.682.04-1.009 0-.327-.108-.43-.408-.43-1.24 0-1.738 2.897-1.738 4.566v4.517h1.54v.641h-6.173l-.061-.634zM201.002 16.755c-3.318 0-5.574-2.14-5.574-5.506a5.574 5.574 0 0 1 11.14 0 5.342 5.342 0 0 1-5.566 5.506zm0-10.37c-2.228 0-2.228 2.357-2.228 4.864 0 2.508 0 4.865 2.228 4.865s2.228-2.357 2.228-4.865c0-2.507.007-4.865-2.228-4.865zM207.707 12.53h.64c.089 1.929 1.363 3.577 3.216 3.577 1.09 0 2.167-.429 2.167-1.54 0-2.466-5.873-1.362-5.873-5.525 0-2.208 1.69-3.298 3.767-3.298a8.047 8.047 0 0 1 3.319.681v2.767h-.64a2.984 2.984 0 0 0-2.828-2.808c-.859 0-1.568.45-1.568 1.329 0 2.187 5.874 1.179 5.874 5.376 0 2.378-2.14 3.666-4.306 3.666a11.127 11.127 0 0 1-3.768-.75V12.53zM216.87 12.53h.641c.089 1.929 1.363 3.577 3.216 3.577 1.09 0 2.167-.429 2.167-1.54 0-2.466-5.873-1.362-5.873-5.525 0-2.208 1.69-3.298 3.768-3.298a8.047 8.047 0 0 1 3.318.681v2.767h-.62a2.984 2.984 0 0 0-2.828-2.808c-.858 0-1.567.45-1.567 1.329 0 2.187 5.874 1.179 5.874 5.376 0 2.378-2.14 3.666-4.307 3.666a11.133 11.133 0 0 1-3.768-.75l-.02-3.475zM230.982 15.855h2.044V1.82h-2.044v-.64h8.095c2.677 0 4.77.558 4.77 3.148 0 2.418-1.93 3.515-4.09 3.665v.041c2.597.068 5.077 1.363 5.077 4.266 0 2.398-1.649 4.197-5.315 4.197h-8.537v-.64zm5.396-8.033h1.363c1.908 0 2.657-.838 2.657-2.978 0-2.139-.62-3.018-2.786-3.018h-1.24l.006 5.996zm0 8.033h1.22c2.398 0 3.638-.96 3.638-3.877 0-2.466-.81-3.515-3.277-3.515h-1.587l.006 7.392zM245.522 15.855h1.54V1.82h-1.54v-.64h1.329c1.09 0 2.208-.041 3.298-.13v14.806h1.54v.64h-6.174l.007-.64zM263.687 15.855h1.54v.64c-2.098 0-3.345.042-4.626.13V14.99h-.041a3.952 3.952 0 0 1-3.407 1.758c-2.167 0-3.686-.77-3.686-3.536V6.643h-1.54v-.647h1.329c1.09 0 2.207-.04 3.298-.13v7.993c0 1.649.79 1.867 1.669 1.867 1.363 0 2.378-1.138 2.378-3.407V6.643h-1.54v-.647h1.329c1.09 0 2.207-.04 3.297-.13v9.99zM269.268 10.711v.92c0 1.908.34 4.217 2.787 4.217 1.798 0 2.936-1.028 3.638-2.568l.58.259a4.838 4.838 0 0 1-4.77 3.216c-3.319 0-5.574-2.14-5.574-5.506a5.342 5.342 0 0 1 5.574-5.505c2.786 0 4.967 1.799 4.967 4.967h-7.202zm3.856-.64v-.988c0-1.22-.3-2.726-1.758-2.726-1.99 0-2.044 2.317-2.098 3.686l3.856.028zM277.492 11.331h.75c.108 2.187 1.866 4.647 4.626 4.647 1.69 0 3.298-.681 3.298-2.528.006-3.788-8.443-2.548-8.443-7.924 0-3.257 2.678-4.606 5.015-4.606 1.49.029 2.96.348 4.327.94l.17 3.666h-.722c-.409-2.099-1.949-3.836-4.136-3.836a2.283 2.283 0 0 0-2.419 2.337c0 3.366 8.258 2.105 8.258 8.054 0 2.766-2.439 4.674-5.546 4.674a12.605 12.605 0 0 1-4.994-1.009l-.184-4.415zM288.945 15.855h1.54V1.82h-1.54v-.64h1.316c1.097 0 2.207-.041 3.297-.13v6.405h.041a3.809 3.809 0 0 1 3.407-1.717c2.167 0 3.686 1.158 3.686 3.536v6.575h1.54v.641h-6.173v-.64h1.54V8.857c0-1.67-.79-2.078-1.67-2.078-1.199 0-2.377 1.158-2.377 2.957v6.132h1.54v.64h-6.174l.027-.654zM302.477 15.855h1.54V6.643h-1.54v-.647h1.329c1.09 0 2.208-.04 3.298-.13v9.99h1.553v.64h-6.173l-.007-.64zM305.564.92a1.67 1.67 0 1 1-1.676 1.67 1.676 1.676 0 0 1 1.676-1.67zM312.698 10.711v.92c0 1.908.34 4.217 2.787 4.217 1.798 0 2.936-1.028 3.638-2.568l.58.259a4.838 4.838 0 0 1-4.77 3.216c-3.319 0-5.574-2.14-5.574-5.506a5.342 5.342 0 0 1 5.574-5.505c2.786 0 4.967 1.799 4.967 4.967h-7.202zm3.856-.64v-.988c0-1.22-.3-2.726-1.758-2.726-1.99 0-2.044 2.317-2.098 3.686l3.856.028zM320.424 15.855h1.54V1.82h-1.54v-.64h1.33c1.09 0 2.207-.041 3.297-.13v14.806h1.54v.64h-6.173l.006-.64zM335.115 15.256h-.041c-.77 1.267-1.99 1.499-3.148 1.499-3.257 0-4.627-2.528-4.627-5.506 0-2.977 1.65-5.505 4.77-5.505 1.363 0 2.487.47 2.977 1.54h.041V1.833h-1.54v-.654h1.33c1.09 0 2.207-.041 3.297-.13v14.806h1.54v.64c-2.099 0-3.346.042-4.627.13l.028-1.37zm-2.33-8.613c-2.12 0-2.229 2.044-2.229 4.606 0 3.107.58 4.606 2.228 4.606 2.249 0 2.399-2.568 2.399-4.606 0-1.71-.15-4.606-2.399-4.606zM130.14 42.449c-3.318 0-5.573-2.14-5.573-5.506a5.574 5.574 0 1 1 5.573 5.506zm0-10.37c-2.228 0-2.228 2.357-2.228 4.864 0 2.508 0 4.865 2.228 4.865s2.228-2.357 2.228-4.865c0-2.507.034-4.864-2.228-4.864z"/>
        <path fill="#231F20" d="M136.273 41.563h1.54v-9.226h-1.54v-.64h1.54v-1.308c0-2.29 1.199-3.768 4.285-3.768.988 0 3.468.361 3.468 2.316 0 1.05-.49 1.5-1.328 1.5-1.09 0-1.363-.6-1.363-1.363s0-1.8-.92-1.8-1.05.791-1.05 1.609v2.828h1.78v.64h-1.78v9.212h1.78v.64h-6.412v-.64zM152.87 41.563h2.045V27.52h-.79c-3.149 0-4.327 2.358-4.368 4.545h-.64v-5.192h14.955v5.185h-.64c-.041-2.187-1.22-4.545-4.368-4.545h-.79v14.05h2.044v.64h-7.447v-.64zM167.84 36.405v.92c0 1.908.34 4.218 2.787 4.218 1.799 0 2.937-1.03 3.638-2.57l.58.26a4.838 4.838 0 0 1-4.77 3.216c-3.318 0-5.574-2.14-5.574-5.506a5.342 5.342 0 0 1 5.574-5.505c2.787 0 4.967 1.799 4.967 4.967h-7.202zm3.857-.64v-1.016c0-1.22-.3-2.725-1.758-2.725-1.99 0-2.044 2.317-2.099 3.686l3.857.055zM175.792 41.563h1.54l3.23-4-3.258-5.226h-1.67v-.64h6.644v.64h-1.444l1.717 2.726 2.146-2.726h-1.41v-.64h3.795v.64h-1.41l-2.726 3.407 3.693 5.82h1.363v.64h-6.535v-.64h1.54l-2.044-3.32-2.637 3.32h1.67v.64h-4.204zM198.59 39.75c0 1.363.211 1.8 1.52 1.8v.64c-.791.061-1.609.13-2.399.13-1.288 0-1.928-.28-2.14-1.54h-.02c-.47 1.362-2.098 1.669-3.468 1.669-2.16 0-3.277-1.329-3.277-3.407 0-2.569 1.969-2.787 4.585-3.298.73-.162 1.447-.376 2.146-.64v-1.329c0-.988-.32-1.69-1.887-1.69-2.916 0-.538 2.848-2.937 2.848-.64 0-1.178-.238-1.178-1.158 0-1.867 2.548-2.337 4.088-2.337 2.868 0 5.015.32 5.015 3.237l-.048 5.076zm-3.087-4.006l-1.84.682c-1.158.408-1.798 1.029-1.798 2.957 0 1.09.388 2.044 1.588 2.044 2.044 0 2.044-2.59 2.044-3.836l.006-1.847zM201.322 38.231h.64c.09 1.929 1.363 3.577 3.217 3.577 1.09 0 2.166-.429 2.166-1.54 0-2.466-5.873-1.362-5.873-5.525 0-2.208 1.69-3.298 3.768-3.298a8.054 8.054 0 0 1 3.318.681v2.76h-.64a2.984 2.984 0 0 0-2.828-2.807c-.858 0-1.567.45-1.567 1.328 0 2.187 5.873 1.179 5.873 5.376 0 2.378-2.14 3.666-4.306 3.666a11.127 11.127 0 0 1-3.768-.75v-3.468z"/>
    </g>
</svg>
