<svg xmlns="http://www.w3.org/2000/svg" width="340" height="57" viewBox="0 0 340 57">
    <g fill="none" fill-rule="evenodd">
        <path fill="#0080C7" d="M45.725 53.627c.44 0 1.09.076 1.09-.566 0-.487-.399-.55-.781-.55h-.89v1.116h.581zm1.464 1.754h-.454l-.893-1.452h-.698v1.452h-.383V52.24h1.36c.824 0 1.104.31 1.104.828 0 .618-.424.849-.978.86l.942 1.453zm.949-1.577c0-1.367-.988-2.427-2.343-2.427-1.36 0-2.354 1.06-2.354 2.427 0 1.379.993 2.452 2.354 2.452 1.355 0 2.343-1.073 2.343-2.452zm-5.138 0A2.804 2.804 0 0 1 45.795 51c1.54 0 2.782 1.261 2.782 2.804 0 1.56-1.242 2.818-2.782 2.818A2.805 2.805 0 0 1 43 53.804zM97.722 53.627c.442 0 1.091.076 1.091-.566 0-.487-.398-.55-.78-.55h-.89v1.116h.579zm1.467 1.754h-.454l-.894-1.452h-.699v1.452h-.384V52.24h1.36c.828 0 1.107.31 1.107.828 0 .618-.424.849-.978.86l.942 1.453zm.949-1.577c0-1.367-.984-2.427-2.34-2.427-1.361 0-2.356 1.06-2.356 2.427 0 1.379.995 2.452 2.356 2.452 1.356 0 2.34-1.073 2.34-2.452zm-5.138 0A2.804 2.804 0 0 1 97.798 51c1.536 0 2.782 1.261 2.782 2.804 0 1.56-1.246 2.818-2.782 2.818A2.806 2.806 0 0 1 95 53.804z"/>
        <path fill="#0080C7" d="M39.836 55.715v-15.48h15.362V15.478H39.836V0H15.36v15.477H0v24.759h15.36v15.48zM85.616 56.92c10.61-5.903 17.04-15.315 20.352-25.638 3.439-10.71 2.87-23.386-1.113-31.282C98.797 3.075 92.7 4.617 85.616 4.64c-7.085.021-13.181-1.565-19.24-4.64-3.982 7.896-4.554 20.573-1.113 31.282 3.314 10.323 9.746 19.735 20.353 25.638"/>
        <path fill="#FFF" d="M13.97 23.003l10.182.993c1.91.263 2.133 2.132 1.627 3.256l-6.974 13.2.007-.02A15.314 15.314 0 0 1 13 28.393c0-1.895.347-3.714.973-5.393l-.003.003zM42.044 23.003l-10.184.993c-1.912.263-2.133 2.132-1.627 3.256l6.976 13.2-.01-.02a15.32 15.32 0 0 0 5.81-12.039 15.4 15.4 0 0 0-.97-5.393l.005.003zM27.754 14.94c1.794 0 2.31 2.048 1.516 3.107-.715.934-.853 1.213-.814 2.092.029.741.705 1.648 2.25 1.683h10.798C39.088 16.607 33.838 13 27.754 13 21.668 13 16.419 16.607 14 21.822h10.797c1.545-.035 2.223-.942 2.255-1.683.035-.878-.102-1.158-.82-2.092-.79-1.059-.28-3.106 1.522-3.106M27.345 43.21c3.082 0 5.948-.924 8.34-2.52l.004.018-7.399-11.146c-.52-.718-1.345-.78-1.893 0L19 40.708l.003-.017a14.977 14.977 0 0 0 8.342 2.52M85.632 52.219c8.735-5.452 13.385-13.257 16.366-22.078 2.646-7.828 3.293-16.989.381-24.141-4.361 1.512-6.918 1.98-9.293 2.352-2.214.347-4.193.56-7.434.605h-.02c-3.238-.046-5.218-.258-7.427-.605-2.375-.372-4.933-.84-9.299-2.352-2.905 7.152-2.259 16.313.385 24.14 2.98 8.822 7.632 16.627 16.361 22.079h-.02z"/>
        <path fill="#0080C7" d="M15.372 25l7.71.715c.553.048.6.282.472.608l-5.398 10.386A13.167 13.167 0 0 1 15 28.13c0-1.078.13-2.127.372-3.13M24.3 16c-.766 1.294-.145 2.978.583 3.778.136.135.07.282-.053.316l-6.83.005A13.107 13.107 0 0 1 24.3 16M40.239 25l-7.707.715c-.556.048-.6.282-.472.608l5.399 10.386a13.17 13.17 0 0 0 3.152-8.579c0-1.078-.128-2.127-.372-3.13M31.656 16c.77 1.294.147 2.978-.582 3.778-.134.135-.069.282.056.316l6.827.005a13.046 13.046 0 0 0-6.3-4.099M85.48 50.298c5.908-3.738 12.6-12.24 15.276-23.418 1.424-5.93 1.82-12.595-.03-17.88-2.649.71-5.115 1.297-7.668 1.643-2.551.35-5.077.598-7.564.615h-.017c-2.485-.017-5.01-.265-7.562-.615-2.558-.346-5.026-.934-7.666-1.643-1.854 5.285-1.454 11.95-.038 17.88 2.678 11.178 9.374 19.68 15.283 23.418h-.014zM27.105 32.121c.118-.154.29-.169.43 0l5.1 7.875a13.013 13.013 0 0 1-10.635 0l5.105-7.875c.141-.169.307-.154.43 0"/>
        <path fill="#FFF" d="M79.181 14.547c-2 1.046-2.691 3.505-1.796 5.49.779 1.721 2.314 2.861 4.098 3.394.894.271 1.798.339 2.724.38 1.13.057 2.152.091 3.244.37.231.06.483.196.605.422.29.553.027 1.154-.547 1.322-.01.96-.096 2.887-.096 2.887s4.633-.443 3.85-4.643c-.19-1.006-.975-2.036-1.87-2.503-2.324-1.2-4.874-.68-7.256-1.457-.8-.26-1.92-.662-2.135-1.57-.087-.364-.009-1.091.364-1.206.599-.196 1.265.313 2.139.514.549.128 1.093.126 1.528-.007.19-.056.475-.134.494-.243-.022-.097-.238-.184-.352-.243-.264-.14-.542-.204-.833-.315-.48-.183-.962-.417-1.446-.69.455-.094 1.224-.117 1.675-.065.365.047 1.49.032 1.825-.057.073-.018.24-.086.166-.211-.132-.223-.351-.3-.497-.509-.33-.45-.617-.914-1.143-1.114-1.523-.59-3.223-.74-4.74.054"/>
        <path fill="#FFF" d="M86.895 30.154l.025-4.904s-.625-.13-1.5-.186c-1.136-.078-1.648-.063-1.648-.063l-.007.415s-.548.233-.631.381c-.04.068-.186.253-.115.438.448 1.21 1.07 2.386 1.245 3.682.847.117 1.596.095 2.63.237"/>
        <path fill="#FFF" d="M82.022 29.29c-.204 1.923 1.042 2.951 2.42 3.282 1.088.261 2.143.318 3.279.452.142.017.447.024.676.127.2.09.3.207.34.333.054.18.031.316-.087.458-.12.155-.447.243-.447.243l-.068 2.31s.925-.038 1.675-.489c.705-.43 1.144-.98 1.304-1.664.183-.798.057-1.576-.5-2.35-.373-.516-1.02-.884-1.671-1.113-1.354-.478-2.819-.405-4.223-.608-.214-.027-.408-.197-.43-.39-.034-.361.298-.523.298-.523s-.166-.554-.346-1.086c-.155-.408-.384-.971-.543-1.272a2.804 2.804 0 0 0-1.677 2.29"/>
        <path fill="#FFF" d="M87.11 33.216l-.036 4.15-1.03-.478-1.02-.427L85 33c.916.109 1.333.12 2.11.216"/>
        <path fill="#FFF" d="M82.196 35.322c-.56 1.341.146 2.655 1.266 3.213.587.286 1.358.55 1.99.793.617.24 1.71.926 1.79 1.253.057.2-.18.397-.18.397l-.027 1.622s.672-.144 1.17-.558c.462-.388.802-.89.798-1.697-.005-.89-.412-1.581-1.665-2.315-.97-.577-2.145-1.035-3.06-1.445-.139-.058-.255-.32-.202-.481.055-.173.161-.234.161-.234L84.216 34s-.706.138-1.038.335c-.308.183-.77.487-.982.987"/>
        <path fill="#FFF" d="M86.783 41.2c.013-.137-.035-.154-.092-.245-.277-.287-.677-.49-.77-.545C85.633 40.239 85 40 85 40s.043 4.243.12 6.434c.017.502.294.628.768.654.58.037.749-.331.758-.545.023-.7.11-3.745.137-5.343M87.293 14.055c.21.158.21.168.272.48.145.678-.005 1.738.13 2.206.067.147.217.145.332.082.933-.51 1.568-1.382 2.506-1.784.447-.19 1.672.43 1.39 1.36-.135.436-.328.504-.6.788-.545.577-1.324 1.119-2.005 1.86-.46.509-1.012.877-1.37 1.449-.11.18-.296.43-.296.43-1.31-.269-2.627-.223-3.648-.43L84 18.965s1.044-.177 1.238-.692c.012-.044-.015-.224-.165-.331a2.691 2.691 0 0 0-.58-.309c1.046.166 1.696.344 2.703.787.068-.114.028-.367-.048-.451-.138-.156-.214-.209-.565-.294-.618-.161-2.293-.367-2.293-.367s.774-.004 1.42-.112c.319-.054.578-.114.648-.222.072-.163-.061-.41-.286-.644-.146-.16-.312-.325-.436-.491-.153-.214-.403-.598-.675-.841-.238-.212-.825-.52-.825-.52s-.11-.821.057-1.15c.125-.248.437-.388.605-.303.752.427 1.492.856 2.495 1.03M83.765 42.512c-.254.266-.68.805-.75 1.674-.068.775.107.989.303 1.41.157.342.527.32.657.004.109-.262-.046-.502.049-1.074.074-.412.4-.642.4-.642L84.393 42s-.292.155-.628.512"/>
        <path fill="#000" d="M83.72 15.466c-.193.139-.326.282-.545.317-.428.068-.368-.307-.662-.515-.184-.13-.353.033-.513-.268.62.017 1.44-.037 1.904.44-.057-.031-.159.01-.184.026"/>
        <path fill="#231F20" d="M129.395 15.782h1.22c2.398 0 3.64-.971 3.64-3.905 0-2.482-.813-3.54-3.275-3.54h-1.585v7.445zm0-8.091h1.37c1.906 0 2.655-.842 2.655-3 0-2.136-.62-3.043-2.783-3.043h-1.242v6.043zM124 15.782h2.055V1.648H124V1h8.093c2.676 0 4.796.561 4.796 3.172 0 2.44-1.928 3.54-4.11 3.69v.044c2.59.065 5.073 1.36 5.073 4.294 0 2.417-1.648 4.23-5.31 4.23H124v-.648zM139 15.912h1.541V1.778H139V1.13h1.327c1.093 0 2.206-.043 3.298-.13v14.912h1.541v.648H139v-.648zM156.755 16.055h1.541v.648c-2.098.022-3.34.043-4.625.129v-1.64h-.042c-.729 1.187-2.077 1.77-3.404 1.77-2.164 0-3.683-.777-3.683-3.56V6.775H145V6.13h1.327c1.092 0 2.206-.043 3.298-.129v8.048c0 1.662.792 1.878 1.67 1.878 1.37 0 2.376-1.144 2.376-3.453V6.776h-1.541V6.13h1.327c1.092 0 2.206-.043 3.298-.129v10.055zM166.195 10.36v-.994c0-1.23-.3-2.72-1.756-2.72-1.99 0-2.034 2.332-2.099 3.713h3.855zm-3.855.647v.928c0 1.92.343 4.25 2.784 4.25 1.798 0 2.933-1.036 3.639-2.588l.58.257c-.858 2.159-2.57 3.238-4.775 3.238-3.32 0-5.568-2.159-5.568-5.545C159 8.353 161.292 6 164.568 6c2.783 0 4.967 1.813 4.967 5.007h-7.195zM184.725 6.633h-.643c-.192-2.677-2.334-4.986-4.817-4.986-4.196 0-4.668 4.338-4.668 7.316 0 2.72.257 7.337 4.519 7.337 2.526 0 4.795-2.352 5.073-4.964h.642v4.36c-1.605.669-3.917 1.251-5.802 1.251-4.902 0-8.029-3.324-8.029-7.984C171 4.323 174.127 1 179.03 1c1.884 0 3.681.474 5.695 1.252v4.38zM186 16.185h1.541v-9.28H186V6.26h1.327c1.093 0 2.205-.043 3.297-.13v1.748h.044c.427-1.1 1.498-1.877 2.696-1.877 1.35 0 2.056.95 2.056 2.179 0 .885-.427 1.446-1.39 1.446-.836 0-1.307-.432-1.307-1.144 0-.626.042-.69.042-1.014 0-.26-.106-.431-.407-.431-1.24 0-1.734 2.913-1.734 4.595v4.554h1.542v.648H186v-.648zM200.567 6.647c-2.228 0-2.228 2.374-2.228 4.899s0 4.899 2.228 4.899c2.227 0 2.227-2.374 2.227-4.899s0-4.9-2.227-4.9m0 10.446c-3.319 0-5.567-2.159-5.567-5.546C195 8.352 197.29 6 200.567 6c3.276 0 5.566 2.352 5.566 5.546 0 3.193-2.29 5.546-5.566 5.546M208 12.84h.642c.086 1.943 1.348 3.605 3.211 3.605 1.092 0 2.164-.432 2.164-1.554 0-2.482-5.868-1.382-5.868-5.568 0-2.222 1.692-3.323 3.768-3.323 1.606 0 2.484.366 3.32.69v2.785h-.643c-.15-1.511-1.306-2.828-2.826-2.828-.857 0-1.564.454-1.564 1.338 0 2.201 5.868 1.187 5.868 5.417 0 2.395-2.141 3.69-4.304 3.69-1.628 0-2.976-.475-3.768-.756v-3.495zM217 12.84h.642c.086 1.943 1.349 3.605 3.212 3.605 1.091 0 2.162-.432 2.162-1.554 0-2.482-5.867-1.382-5.867-5.568 0-2.222 1.692-3.323 3.769-3.323 1.605 0 2.483.366 3.318.69v2.785h-.642c-.15-1.511-1.306-2.828-2.826-2.828-.857 0-1.563.454-1.563 1.338 0 2.201 5.867 1.187 5.867 5.417 0 2.395-2.142 3.69-4.304 3.69-1.627 0-2.976-.475-3.768-.756v-3.495zM236.396 15.782h1.22c2.398 0 3.64-.971 3.64-3.905 0-2.482-.813-3.54-3.276-3.54h-1.584v7.445zm0-8.091h1.37c1.906 0 2.654-.842 2.654-3 0-2.136-.62-3.043-2.782-3.043h-1.242v6.043zM231 15.782h2.056V1.648H231V1h8.093c2.677 0 4.796.561 4.796 3.172 0 2.44-1.926 3.54-4.11 3.69v.044c2.59.065 5.073 1.36 5.073 4.294 0 2.417-1.648 4.23-5.309 4.23H231v-.648zM245 15.912h1.541V1.778H245V1.13h1.328c1.091 0 2.205-.043 3.296-.13v14.912h1.542v.648H245v-.648zM263.755 16.055h1.541v.648c-2.098.022-3.34.043-4.624.129v-1.64h-.042c-.73 1.187-2.078 1.77-3.405 1.77-2.163 0-3.683-.777-3.683-3.56V6.775H252V6.13h1.328c1.092 0 2.205-.043 3.297-.129v8.048c0 1.662.792 1.878 1.67 1.878 1.37 0 2.377-1.144 2.377-3.453V6.776h-1.541V6.13h1.327c1.092 0 2.205-.043 3.297-.129v10.055zM273.194 10.36v-.994c0-1.23-.3-2.72-1.755-2.72-1.991 0-2.035 2.332-2.1 3.713h3.855zm-3.855.647v.928c0 1.92.343 4.25 2.785 4.25 1.798 0 2.933-1.036 3.639-2.588l.578.257c-.855 2.159-2.57 3.238-4.774 3.238-3.319 0-5.567-2.159-5.567-5.545C266 8.353 268.291 6 271.567 6c2.784 0 4.968 1.813 4.968 5.007h-7.196zM277 11.487h.749c.107 2.202 1.863 4.682 4.624 4.682 1.69 0 3.297-.69 3.297-2.546 0-3.819-8.435-2.567-8.435-7.984 0-3.28 2.676-4.639 5.01-4.639 1.263 0 2.376.215 4.325.95l.17 3.69h-.727c-.407-2.115-1.95-3.863-4.132-3.863-1.391 0-2.42.95-2.42 2.352 0 3.388 8.265 2.114 8.265 8.113 0 2.784-2.44 4.705-5.546 4.705-1.69 0-3.404-.324-4.988-1.014L277 11.487zM289 15.912h1.541V1.778H289V1.13h1.328c1.092 0 2.204-.043 3.297-.13v6.453h.043c.728-1.144 1.906-1.726 3.403-1.726 2.163 0 3.683 1.165 3.683 3.56v6.625h1.542v.648h-6.166v-.648h1.541V8.856c0-1.684-.792-2.094-1.67-2.094-1.199 0-2.376 1.166-2.376 2.979v6.17h1.54v.649H289v-.648z"/>
        <path fill="#231F20" d="M305.083 1c.92 0 1.67.755 1.67 1.683a1.68 1.68 0 0 1-1.67 1.683c-.92 0-1.67-.755-1.67-1.683S304.163 1 305.083 1zM302 16.04h1.54V6.763H302v-.648h1.327c1.092 0 2.206-.042 3.297-.13v10.057h1.542v.647H302v-.647zM316.195 10.36v-.994c0-1.23-.3-2.72-1.756-2.72-1.992 0-2.035 2.332-2.1 3.713h3.856zm-3.856.647v.928c0 1.92.343 4.25 2.785 4.25 1.798 0 2.933-1.036 3.638-2.588l.58.257c-.858 2.159-2.57 3.238-4.775 3.238-3.319 0-5.567-2.159-5.567-5.545C309 8.353 311.291 6 314.567 6c2.783 0 4.967 1.813 4.967 5.007h-7.195zM320 15.912h1.541V1.778H320V1.13h1.327a41.86 41.86 0 0 0 3.298-.13v14.912h1.54v.648H320v-.648zM332.48 6.633c-2.118 0-2.227 2.071-2.227 4.64 0 3.128.58 4.639 2.227 4.639 2.25 0 2.398-2.59 2.398-4.64 0-1.747-.149-4.64-2.398-4.64zm2.335 8.675h-.043c-.771 1.273-1.991 1.51-3.148 1.51-3.254 0-4.624-2.546-4.624-5.545 0-2.914 1.649-5.546 4.796-5.546 1.348 0 2.484.474 2.976 1.552h.043V1.778h-1.542V1.13h1.327c1.093 0 2.206-.043 3.298-.13v14.912h1.541v.647c-2.098.022-3.34.043-4.624.13v-1.381zM130.567 32.647c-2.227 0-2.227 2.374-2.227 4.899 0 2.524 0 4.899 2.227 4.899s2.227-2.375 2.227-4.899c0-2.525 0-4.899-2.227-4.899m0 10.444c-3.319 0-5.567-2.158-5.567-5.545 0-3.194 2.291-5.546 5.567-5.546 3.276 0 5.566 2.352 5.566 5.546 0 3.193-2.29 5.545-5.566 5.545"/>
        <path fill="#231F20" d="M136 42.04h1.542v-9.278H136v-.648h1.542v-1.316c0-2.309 1.199-3.798 4.282-3.798.985 0 3.47.366 3.47 2.33 0 1.058-.494 1.511-1.329 1.511-1.092 0-1.37-.605-1.37-1.381 0-.863 0-1.813-.921-1.813-.942 0-1.049.798-1.049 1.619v2.848h1.777v.648h-1.777v9.279h1.777v.647H136v-.647zM149 41.782h2.141V27.647H149V27h6.144l7.795 10.186h.043v-9.539h-2.378V27h5.161v.647h-2.141v15.04l-.514.13-11.284-14.392h-.043v13.357h2.355v.647H149zM173.194 36.36v-.994c0-1.23-.3-2.719-1.755-2.719-1.991 0-2.035 2.33-2.1 3.712h3.855zm-3.855.646v.928c0 1.92.344 4.251 2.784 4.251 1.799 0 2.934-1.036 3.64-2.59l.578.26c-.856 2.158-2.57 3.236-4.774 3.236-3.319 0-5.567-2.157-5.567-5.545 0-3.194 2.29-5.546 5.567-5.546 2.784 0 4.967 1.812 4.967 5.006h-7.195zM177.542 32.648H176V32h6.402v.648h-1.67l2.076 6.064h.044l2.27-6.064h-1.671V32h6.595v.648h-1.67l2.033 6.064h.043l2.184-6.064h-1.541V32h3.897v.648h-1.542l-3.855 10.185h-.684l-3.426-9.28-3.533 9.28h-.642zM201 41.782h2.142V27.647H201V27h5.846l4.196 11.179L215.646 27h5.588v.647h-2.142v14.135h2.142v.647h-7.772v-.647h2.29V28.813h-.042l-5.695 14.005h-.728l-5.46-14.005h-.042v12.969h2.375v.647H201z"/>
        <path fill="#231F20" d="M228.193 36.36v-.994c0-1.23-.3-2.719-1.755-2.719-1.99 0-2.035 2.33-2.099 3.712h3.854zm-3.854.646v.928c0 1.92.342 4.251 2.784 4.251 1.798 0 2.934-1.036 3.64-2.59l.578.26c-.857 2.158-2.57 3.236-4.774 3.236-3.32 0-5.567-2.157-5.567-5.545 0-3.194 2.29-5.546 5.567-5.546 2.783 0 4.966 1.812 4.966 5.006h-7.194zM232.213 41.926h1.543l3.168-4.013-3.254-5.266H232V32h6.637v.647h-1.413l1.713 2.719 2.14-2.719h-1.413V32h3.79v.647h-1.412l-2.698 3.41 3.682 5.87h1.392v.647h-6.53v-.648h1.542l-2.078-3.345-2.633 3.345h1.67v.648h-4.176zM248.082 27c.921 0 1.67.755 1.67 1.684 0 .926-.749 1.682-1.67 1.682-.92 0-1.67-.756-1.67-1.682 0-.929.75-1.684 1.67-1.684zM245 42.04h1.54v-9.278H245v-.648h1.326c1.093 0 2.205-.043 3.298-.13v10.057h1.542v.647H245v-.647zM262.062 39.639c-.685 2.115-2.077 3.452-4.496 3.452-3.319 0-5.566-2.157-5.566-5.545 0-3.194 2.291-5.546 5.566-5.546 1.67 0 4.132.41 4.132 2.784 0 .798-.492 1.208-1.263 1.208-1.242 0-1.562-.668-1.562-1.813 0-.971-.407-1.532-1.307-1.532-2.227 0-2.227 2.374-2.227 4.899 0 2.007.215 4.639 2.848 4.639 1.82 0 2.719-1.273 3.297-2.805l.578.259zM268.567 32.647c-2.227 0-2.227 2.374-2.227 4.899 0 2.524 0 4.899 2.227 4.899s2.227-2.375 2.227-4.899c0-2.525 0-4.899-2.227-4.899m0 10.444c-3.32 0-5.567-2.158-5.567-5.545 0-3.194 2.292-5.546 5.567-5.546 3.276 0 5.566 2.352 5.566 5.546 0 3.193-2.29 5.545-5.566 5.545"/>
    </g>
</svg>
