<svg xmlns="http://www.w3.org/2000/svg" width="339" height="56" viewBox="0 0 339 56">
    <g fill="none" fill-rule="evenodd">
        <path fill="#0080C7" d="M45.932 52.803c.473 0 1.172.081 1.172-.603 0-.521-.428-.588-.84-.588h-.958v1.19h.626zm1.575 1.872h-.49l-.96-1.55h-.751v1.55h-.411v-3.352h1.464c.886 0 1.187.331 1.187.883 0 .66-.458.906-1.052.92l1.013 1.549zm1.02-1.683c0-1.458-1.062-2.591-2.52-2.591-1.464 0-2.532 1.133-2.532 2.59 0 1.473 1.068 2.618 2.533 2.618 1.457 0 2.52-1.145 2.52-2.617zm-5.527 0A3.004 3.004 0 0 1 46.008 50 2.994 2.994 0 0 1 49 52.992 2.996 2.996 0 0 1 46.008 56 3.006 3.006 0 0 1 43 52.992zM97.927 52.803c.476 0 1.174.081 1.174-.603 0-.521-.43-.588-.839-.588h-.959v1.19h.624zm1.578 1.872h-.489l-.961-1.55h-.752v1.55h-.413v-3.352h1.463c.89 0 1.192.331 1.192.883 0 .66-.458.906-1.053.92l1.013 1.549zm1.02-1.683c0-1.458-1.057-2.591-2.517-2.591-1.463 0-2.533 1.133-2.533 2.59 0 1.473 1.07 2.618 2.533 2.618 1.46 0 2.517-1.145 2.517-2.617zm-5.525 0A3.004 3.004 0 0 1 98.008 50 2.995 2.995 0 0 1 101 52.992 2.998 2.998 0 0 1 98.008 56 3.006 3.006 0 0 1 95 52.992z"/>
        <path fill="#0080C7" d="M39.693 56V40.719H55V16.278H39.693V1H15.305v15.278H0v24.44h15.305V56zM85.501 56c10.557-5.807 16.954-15.067 20.248-25.224C109.171 20.24 108.604 7.768 104.642 0c-6.027 3.025-12.092 4.542-19.14 4.565-7.05.02-13.115-1.54-19.142-4.565-3.963 7.768-4.533 20.24-1.108 30.776C68.55 40.933 74.948 50.193 85.502 56"/>
        <path fill="#FFF" d="M12.968 23.003l10.174.967c1.909.256 2.13 2.076 1.625 3.172L17.8 40l.007-.02C14.27 37.252 12 33.017 12 28.255c0-1.846.346-3.618.971-5.254l-.003.003zM42.036 23.003l-10.177.967c-1.911.256-2.13 2.076-1.626 3.172L37.204 40l-.01-.02C40.727 37.252 43 33.017 43 28.255c0-1.846-.343-3.618-.97-5.254l.006.003zM28.002 14.98c1.827 0 2.353 2.088 1.544 3.169-.727.953-.869 1.238-.829 2.135.03.755.719 1.68 2.29 1.716H42c-2.46-5.32-7.803-9-13.998-9-6.196 0-11.539 3.68-14.002 9h10.993c1.571-.036 2.262-.96 2.295-1.716.035-.897-.104-1.182-.835-2.135-.804-1.08-.285-3.169 1.55-3.169M27.5 43c3.14 0 6.06-.91 8.497-2.482l.003.017-7.536-10.982c-.53-.706-1.371-.768-1.93 0L19 40.535l.002-.017A15.634 15.634 0 0 0 27.501 43M85.487 52c8.666-5.426 13.28-13.195 16.239-21.973 2.624-7.791 3.267-16.91.378-24.027-4.328 1.505-6.865 1.97-9.221 2.34-2.198.346-4.16.557-7.376.603h-.02c-3.213-.046-5.177-.257-7.37-.602-2.356-.37-4.894-.836-9.226-2.341-2.882 7.118-2.24 16.236.382 24.027C72.23 38.805 76.846 46.574 85.507 52h-.02z"/>
        <path fill="#0080C7" d="M15.39 25l8.056.733c.577.048.625.29.493.622L18.299 37A13.337 13.337 0 0 1 15 28.208c0-1.105.136-2.18.39-3.208M24.338 16c-.771 1.263-.146 2.906.586 3.687.137.132.07.275-.054.308L18 20a13.22 13.22 0 0 1 6.338-4M40.61 25l-8.054.733c-.58.048-.628.29-.494.622L37.705 37A13.344 13.344 0 0 0 41 28.208c0-1.105-.133-2.18-.39-3.208M31.66 16c.775 1.263.148 2.906-.585 3.687-.135.132-.07.275.056.308L38 20a13.164 13.164 0 0 0-6.34-4M85.494 50c5.912-3.71 12.61-12.152 15.287-23.249 1.426-5.887 1.823-12.504-.028-17.751-2.652.705-5.12 1.288-7.675 1.631-2.554.348-5.082.595-7.57.611h-.017c-2.488-.016-5.016-.263-7.569-.61-2.56-.344-5.03-.927-7.672-1.632-1.855 5.247-1.456 11.864-.038 17.751C72.892 37.848 79.594 46.29 85.507 50h-.013zM27.28 32.12c.123-.153.3-.167.444 0L33 39.88A14.01 14.01 0 0 1 27.502 41c-1.96 0-3.818-.403-5.502-1.12l5.28-7.76c.147-.167.318-.153.444 0"/>
        <path fill="#FFF" d="M79.127 14.554c-1.95 1.06-2.624 3.55-1.751 5.56.76 1.742 2.257 2.897 3.997 3.437.872.274 1.754.343 2.657.385 1.102.058 2.1.092 3.165.375.226.06.471.198.59.427.283.56.027 1.168-.533 1.338-.011.972-.095 2.924-.095 2.924s4.52-.449 3.756-4.702c-.185-1.02-.95-2.063-1.822-2.534-2.268-1.216-4.756-.688-7.08-1.476-.78-.264-1.872-.67-2.083-1.59-.085-.368-.008-1.105.356-1.222.584-.197 1.234.317 2.086.521.535.13 1.066.127 1.49-.007.186-.057.464-.135.483-.246-.022-.1-.233-.186-.343-.246-.258-.142-.53-.207-.813-.32a10.42 10.42 0 0 1-1.412-.697c.445-.096 1.194-.12 1.635-.067.355.048 1.453.032 1.78-.058.072-.017.234-.086.162-.214-.128-.225-.342-.303-.484-.514-.322-.455-.603-.926-1.116-1.13-1.485-.596-3.144-.75-4.625.056"/>
        <path fill="#FFF" d="M86.974 29L87 24.243s-.638-.127-1.53-.18c-1.16-.076-1.682-.062-1.682-.062l-.007.403s-.56.226-.645.37c-.04.066-.189.245-.116.424.456 1.174 1.091 2.315 1.27 3.572.864.114 1.629.092 2.684.23"/>
        <path fill="#FFF" d="M81.022 29.17c-.2 1.824 1.019 2.798 2.37 3.111 1.064.248 2.097.302 3.209.429.14.015.437.023.663.12.194.085.294.196.331.317.054.17.03.299-.085.433-.117.147-.437.23-.437.23L87.007 36s.905-.036 1.64-.464c.69-.407 1.12-.928 1.276-1.577.18-.756.056-1.494-.489-2.228-.365-.488-.998-.837-1.637-1.054-1.325-.453-2.76-.385-4.135-.577-.209-.026-.398-.187-.42-.37-.033-.342.292-.495.292-.495s-.162-.526-.34-1.03c-.15-.387-.376-.92-.53-1.205a2.664 2.664 0 0 0-1.642 2.17"/>
        <path fill="#FFF" d="M87 33.199L86.965 37l-.976-.437-.966-.391L85 33c.868.1 1.264.11 2 .199"/>
        <path fill="#FFF" d="M82.196 35.383c-.559 1.404.146 2.779 1.265 3.362.587.3 1.357.576 1.988.83.618.252 1.71.969 1.791 1.312.056.21-.18.415-.18.415L87.032 43s.67-.151 1.17-.584c.46-.406.8-.93.797-1.777-.005-.93-.412-1.654-1.664-2.423-.97-.603-2.145-1.082-3.06-1.511-.138-.06-.254-.336-.201-.504.055-.181.16-.244.16-.244L84.216 34s-.706.145-1.038.35c-.307.191-.769.509-.981 1.033"/>
        <path fill="#FFF" d="M86.998 41.184c.014-.135-.04-.152-.104-.241-.31-.284-.757-.484-.861-.539C85.708 40.235 85 40 85 40s.048 4.188.135 6.35c.019.496.33.62.86.647.65.037.84-.328.85-.538.025-.691.122-3.697.153-5.275M87.307 14.065c.212.16.212.17.273.485.145.684-.004 1.754.131 2.226.067.149.218.147.333.083.937-.514 1.575-1.394 2.517-1.801.45-.191 1.68.435 1.397 1.374-.136.44-.33.508-.603.794-.547.583-1.33 1.13-2.014 1.879-.462.513-1.016.885-1.376 1.462a7.198 7.198 0 0 1-.297.433c-1.316-.27-2.638-.224-3.664-.433L84 19.022s1.048-.18 1.244-.7c.012-.044-.015-.224-.166-.334a2.733 2.733 0 0 0-.583-.31c1.05.166 1.703.346 2.715.793.069-.114.027-.37-.049-.455-.138-.158-.214-.21-.567-.297-.62-.162-2.303-.37-2.303-.37s.778-.005 1.427-.114c.32-.053.58-.115.65-.223.073-.164-.061-.414-.288-.65-.146-.163-.313-.328-.438-.496-.152-.216-.404-.604-.676-.85-.24-.213-.83-.523-.83-.523s-.11-.83.058-1.163c.125-.25.438-.39.607-.305.756.431 1.499.864 2.506 1.04M83.537 42.532c-.178.278-.477.838-.526 1.742-.049.807.075 1.03.212 1.467.11.356.37.333.462.004.076-.272-.033-.521.034-1.117.052-.429.281-.667.281-.667L83.978 42s-.205.162-.441.532"/>
        <path fill="#000" d="M83.806 15.461c-.202.137-.342.28-.572.313-.45.069-.386-.304-.696-.51-.193-.129-.37.034-.538-.264.652.017 1.513-.037 2 .436-.06-.032-.167.008-.194.025"/>
        <path fill="#231F20" d="M129.453 15.37h1.233c2.424 0 3.68-.944 3.68-3.796 0-2.413-.823-3.441-3.312-3.441h-1.601v7.238zm0-7.866h1.385c1.926 0 2.683-.818 2.683-2.917 0-2.076-.628-2.958-2.813-2.958h-1.255v5.875zM124 15.371h2.078V1.629H124V1h8.18c2.704 0 4.847.546 4.847 3.084 0 2.37-1.948 3.44-4.155 3.587v.042c2.619.064 5.128 1.322 5.128 4.175 0 2.35-1.665 4.112-5.366 4.112H124v-.63zM139 15.376h1.5V1.749H139v-.624h1.291A41.5 41.5 0 0 0 143.5 1v14.376h1.5V16h-6v-.624zM156.492 16.09H158v.65c-2.052.022-3.266.043-4.522.13v-1.645h-.042c-.712 1.19-2.03 1.775-3.328 1.775-2.115 0-3.601-.78-3.601-3.573V6.78H145v-.65h1.297a39.96 39.96 0 0 0 3.225-.13v8.077c0 1.667.774 1.884 1.632 1.884 1.34 0 2.324-1.148 2.324-3.465V6.78h-1.507v-.65h1.297c1.068 0 2.156-.043 3.224-.13v10.09zM166.512 10.323v-.984c0-1.22-.313-2.697-1.833-2.697-2.08 0-2.125 2.311-2.191 3.68h4.024zm-4.024.642v.92c0 1.905.357 4.216 2.907 4.216 1.876 0 3.062-1.027 3.8-2.568l.603.257c-.895 2.14-2.682 3.21-4.985 3.21-3.465 0-5.813-2.14-5.813-5.5 0-3.167 2.392-5.5 5.813-5.5C167.719 6 170 7.798 170 10.965h-7.512zM184.892 6.651h-.65c-.196-2.685-2.363-5.002-4.877-5.002-4.247 0-4.724 4.353-4.724 7.34 0 2.729.26 7.362 4.572 7.362 2.558 0 4.856-2.36 5.138-4.98H185v4.373c-1.625.671-3.965 1.256-5.874 1.256-4.962 0-8.126-3.334-8.126-8.01 0-4.656 3.164-7.99 8.126-7.99 1.909 0 3.728.476 5.766 1.255v4.396zM186 16.343h1.472V6.92H186v-.658h1.268a37.67 37.67 0 0 0 3.15-.132v1.776h.041C190.87 6.789 191.89 6 193.036 6c1.288 0 1.964.964 1.964 2.213 0 .899-.409 1.468-1.33 1.468-.798 0-1.247-.438-1.247-1.16 0-.636.04-.702.04-1.03 0-.264-.101-.44-.389-.44-1.186 0-1.656 2.96-1.656 4.668v4.624h1.472V17H186v-.657zM200.5 6.641c-2.2 0-2.2 2.355-2.2 4.859s0 4.859 2.2 4.859 2.2-2.355 2.2-4.859 0-4.859-2.2-4.859m0 10.359c-3.279 0-5.5-2.14-5.5-5.5 0-3.168 2.263-5.5 5.5-5.5 3.238 0 5.5 2.332 5.5 5.5 0 3.167-2.262 5.5-5.5 5.5M208 12.784h.636c.085 1.926 1.337 3.574 3.184 3.574 1.081 0 2.143-.428 2.143-1.54 0-2.462-5.815-1.37-5.815-5.522 0-2.205 1.677-3.296 3.735-3.296 1.592 0 2.462.364 3.29.685v2.761h-.637c-.149-1.5-1.295-2.804-2.8-2.804-.85 0-1.551.45-1.551 1.327 0 2.183 5.815 1.177 5.815 5.372 0 2.374-2.123 3.659-4.265 3.659-1.613 0-2.95-.471-3.735-.749v-3.467zM217 12.784h.636c.085 1.926 1.337 3.574 3.183 3.574 1.082 0 2.144-.428 2.144-1.54 0-2.462-5.815-1.37-5.815-5.522 0-2.205 1.677-3.296 3.735-3.296 1.592 0 2.462.364 3.29.685v2.761h-.637c-.149-1.5-1.295-2.804-2.801-2.804-.849 0-1.55.45-1.55 1.327 0 2.183 5.815 1.177 5.815 5.372 0 2.374-2.123 3.659-4.265 3.659-1.613 0-2.95-.471-3.735-.749v-3.467zM236.453 15.37h1.233c2.424 0 3.678-.944 3.678-3.796 0-2.413-.821-3.441-3.31-3.441h-1.601v7.238zm0-7.866h1.385c1.925 0 2.682-.818 2.682-2.917 0-2.076-.627-2.958-2.812-2.958h-1.255v5.875zM231 15.371h2.077V1.629H231V1h8.178c2.706 0 4.847.546 4.847 3.084 0 2.37-1.946 3.44-4.154 3.587v.042c2.619.064 5.129 1.322 5.129 4.175 0 2.35-1.666 4.112-5.367 4.112H231v-.63zM245 15.376h1.5V1.749H245v-.624h1.291c1.063 0 2.146-.042 3.208-.125v14.376H251V16h-6v-.624zM263.492 16.09H265v.65c-2.052.022-3.266.043-4.522.13v-1.645h-.042c-.712 1.19-2.03 1.775-3.328 1.775-2.115 0-3.601-.78-3.601-3.573V6.78H252v-.65h1.298c1.068 0 2.156-.043 3.224-.13v8.077c0 1.667.774 1.884 1.632 1.884 1.34 0 2.324-1.148 2.324-3.465V6.78h-1.507v-.65h1.297c1.068 0 2.156-.043 3.224-.13v10.09zM273.513 10.323v-.984c0-1.22-.314-2.697-1.833-2.697-2.08 0-2.126 2.311-2.193 3.68h4.026zm-4.026.642v.92c0 1.905.358 4.216 2.908 4.216 1.877 0 3.063-1.027 3.8-2.568l.604.257c-.894 2.14-2.683 3.21-4.985 3.21-3.466 0-5.814-2.14-5.814-5.5 0-3.167 2.392-5.5 5.814-5.5C274.719 6 277 7.798 277 10.965h-7.513zM277 11.522h.769c.109 2.209 1.91 4.698 4.741 4.698 1.736 0 3.383-.693 3.383-2.555 0-3.83-8.652-2.575-8.652-8.01 0-3.291 2.745-4.655 5.138-4.655 1.295 0 2.437.217 4.435.953l.175 3.703h-.745c-.418-2.122-1.998-3.876-4.239-3.876-1.426 0-2.48.952-2.48 2.36 0 3.399 8.475 2.122 8.475 8.14 0 2.793-2.502 4.72-5.687 4.72-1.734 0-3.491-.324-5.116-1.017l-.197-4.46zM289 15.376h1.507V1.749H289v-.624h1.297A41.86 41.86 0 0 0 293.521 1v6.22h.043c.711-1.103 1.863-1.664 3.328-1.664 2.114 0 3.601 1.124 3.601 3.433v6.387H302V16h-6.03v-.624h1.508V8.574c0-1.624-.774-2.02-1.632-2.02-1.173 0-2.325 1.124-2.325 2.872v5.95h1.508V16H289v-.624zM305 1c.895 0 1.624.77 1.624 1.717 0 .946-.73 1.716-1.624 1.716-.897 0-1.625-.77-1.625-1.716 0-.947.728-1.717 1.625-1.717zm-3 15.34h1.499V6.877H302v-.661h1.291a38.94 38.94 0 0 0 3.208-.132V16.34H308V17h-6v-.66zM316.513 10.323v-.984c0-1.22-.313-2.697-1.833-2.697-2.08 0-2.125 2.311-2.192 3.68h4.025zm-4.025.642v.92c0 1.905.357 4.216 2.907 4.216 1.877 0 3.063-1.027 3.8-2.568l.604.257c-.894 2.14-2.682 3.21-4.985 3.21-3.466 0-5.814-2.14-5.814-5.5 0-3.167 2.393-5.5 5.814-5.5C317.72 6 320 7.798 320 10.965h-7.512zM320 15.376h1.5V1.749H320v-.624h1.291c1.063 0 2.146-.042 3.208-.125v14.376H326V16h-6v-.624zM332.288 6.698c-2.045 0-2.149 2.095-2.149 4.693 0 3.164.559 4.692 2.149 4.692 2.168 0 2.313-2.619 2.313-4.692 0-1.768-.145-4.693-2.313-4.693zm2.251 8.773h-.041C333.755 16.76 332.577 17 331.46 17c-3.139 0-4.461-2.576-4.461-5.61 0-2.947 1.59-5.61 4.627-5.61 1.301 0 2.396.48 2.87 1.572h.042V1.786h-1.488v-.655h1.28c1.055 0 2.129-.043 3.182-.131v15.083H339v.655c-2.024.022-3.222.044-4.46.13v-1.397zM130.5 31.643c-2.2 0-2.2 2.353-2.2 4.857s0 4.858 2.2 4.858 2.2-2.354 2.2-4.858c0-2.504 0-4.857-2.2-4.857m0 10.357c-3.28 0-5.5-2.14-5.5-5.5 0-3.167 2.264-5.5 5.5-5.5 3.237 0 5.5 2.333 5.5 5.5s-2.263 5.5-5.5 5.5M136 42.34h1.493v-9.464H136v-.66h1.493v-1.343c0-2.354 1.16-3.873 4.147-3.873.954 0 3.36.375 3.36 2.377 0 1.078-.477 1.54-1.286 1.54-1.058 0-1.327-.616-1.327-1.407 0-.882 0-1.85-.892-1.85-.912 0-1.015.814-1.015 1.65v2.906h1.72v.66h-1.72v9.464h1.72V43H136v-.66zM151 41.953h2.116V27.656H151V27h5.778l4.147 11.308L165.477 27H171v.656h-2.116v14.297H171v.655h-7.682v-.655h2.264V28.834h-.042L159.91 43h-.72l-5.396-14.166h-.043v13.119h2.35v.655H151zM176.5 31.643c-2.201 0-2.201 2.354-2.201 4.858 0 2.504 0 4.857 2.201 4.857 2.2 0 2.2-2.353 2.2-4.857s0-4.858-2.2-4.858m0 10.357c-3.279 0-5.5-2.14-5.5-5.499 0-3.167 2.264-5.501 5.5-5.501s5.5 2.334 5.5 5.501c0 3.166-2.264 5.499-5.5 5.499M183 41.342h1.506V31.92H183v-.655h1.298a39.62 39.62 0 0 0 3.223-.132v1.62h.042c.712-1.16 1.864-1.753 3.328-1.753 2.116 0 3.601 1.185 3.601 3.617v6.725H196V42h-6.029v-.658h1.507v-7.164c0-1.71-.774-2.125-1.632-2.125-1.174 0-2.325 1.183-2.325 3.022v6.267h1.509V42H183v-.658zM197.627 29h3.254v3.02h2.282v.654h-2.282v7.657c0 .722 0 1.75 1.152 1.75.746 0 1.22-.392 1.56-.7l.407.415c-.972.986-2.125 1.204-3.481 1.204-1.378 0-2.892-.197-2.892-2.865v-7.461H196v-.654h1.627V29zM211.529 35.303l-1.789.663c-1.122.407-1.745 1.027-1.745 2.953 0 1.092.374 2.054 1.538 2.054 1.975 0 1.996-2.59 1.996-3.831v-1.84zm2.994 4.001c0 1.37.208 1.797 1.477 1.797v.643c-.77.064-1.56.128-2.33.128-1.247 0-1.872-.278-2.079-1.54h-.041C211.092 41.68 209.512 42 208.18 42c-2.1 0-3.181-1.326-3.181-3.402 0-2.568 1.913-2.782 4.45-3.295.478-.107 1.539-.407 2.079-.642v-1.327c0-.985-.313-1.691-1.83-1.691-2.828 0-.52 2.846-2.848 2.846-.624 0-1.144-.235-1.144-1.155 0-1.863 2.474-2.334 3.951-2.334 2.785 0 4.865.322 4.865 3.233v5.071zM217 41.342h1.506V31.92H217v-.655h1.297a39.64 39.64 0 0 0 3.225-.132v1.62h.041c.713-1.16 1.864-1.753 3.329-1.753 2.115 0 3.6 1.185 3.6 3.617v6.725H230V42h-6.029v-.658h1.507v-7.164c0-1.71-.774-2.125-1.632-2.125-1.172 0-2.324 1.183-2.324 3.022v6.267h1.508V42H217v-.658zM237.53 35.303l-1.789.663c-1.123.407-1.746 1.027-1.746 2.953 0 1.092.375 2.054 1.539 2.054 1.974 0 1.996-2.59 1.996-3.831v-1.84zm2.995 4.001c0 1.37.207 1.797 1.475 1.797v.643c-.77.064-1.56.128-2.329.128-1.247 0-1.872-.278-2.079-1.54h-.042c-.457 1.348-2.037 1.668-3.368 1.668-2.1 0-3.182-1.326-3.182-3.402 0-2.568 1.913-2.782 4.45-3.295.479-.107 1.54-.407 2.08-.642v-1.327c0-.985-.313-1.691-1.83-1.691-2.828 0-.52 2.846-2.848 2.846-.624 0-1.145-.235-1.145-1.155 0-1.863 2.475-2.334 3.952-2.334 2.786 0 4.866.322 4.866 3.233v5.071z"/>
    </g>
</svg>
