<svg xmlns="http://www.w3.org/2000/svg" width="340" height="57" viewBox="0 0 340 57">
    <g fill="none" fill-rule="evenodd">
        <path fill="#0080C7" d="M45.33 53.21c.44 0 1.09.075 1.09-.56 0-.486-.398-.547-.782-.547h-.89v1.107h.582zm1.465 1.742h-.455l-.893-1.442h-.7v1.442h-.382v-3.119h1.361c.825 0 1.105.309 1.105.822 0 .614-.425.842-.98.855l.944 1.442zm.949-1.566c0-1.357-.988-2.41-2.343-2.41-1.362 0-2.357 1.053-2.357 2.41 0 1.37.995 2.435 2.357 2.435 1.355 0 2.343-1.065 2.343-2.435zm-5.142 0a2.794 2.794 0 0 1 2.799-2.783 2.784 2.784 0 0 1 2.782 2.783 2.787 2.787 0 0 1-2.782 2.798 2.797 2.797 0 0 1-2.799-2.798zM97.877 53.21c.443 0 1.092.075 1.092-.56 0-.486-.399-.547-.78-.547h-.892v1.107h.58zm1.468 1.742h-.454l-.895-1.442h-.7v1.442h-.384v-3.119h1.362c.828 0 1.108.309 1.108.822 0 .614-.426.842-.979.855l.942 1.442zm.95-1.566c0-1.357-.984-2.41-2.342-2.41-1.362 0-2.358 1.053-2.358 2.41 0 1.37.996 2.435 2.358 2.435 1.358 0 2.341-1.065 2.341-2.435zm-5.141 0a2.794 2.794 0 0 1 2.8-2.783 2.786 2.786 0 0 1 2.783 2.783 2.789 2.789 0 0 1-2.784 2.798c-1.547 0-2.8-1.25-2.8-2.798z"/>
        <path fill="#0080C7" d="M39.861 55.915V40.547h15.372V15.966H39.861V.601h-24.49v15.365H0v24.581h15.37v15.368zM85.57 56.51c10.617-5.86 17.051-15.204 20.364-25.453 3.442-10.633 2.872-23.218-1.113-31.057-6.061 3.053-12.162 4.584-19.25 4.607-7.09.02-13.19-1.554-19.252-4.607-3.986 7.84-4.558 20.424-1.114 31.057C68.52 41.306 74.957 50.65 85.57 56.51"/>
        <path fill="#FFF" d="M13.445 22.948l10.188.987c1.912.26 2.134 2.115 1.629 3.232l-6.98 13.104.008-.02A15.16 15.16 0 0 1 12.475 28.3c0-1.882.347-3.688.973-5.355l-.003.003zM41.874 22.948l-10.19.987c-1.914.26-2.134 2.115-1.628 3.232l6.98 13.104-.01-.02c3.538-2.781 5.813-7.098 5.813-11.951 0-1.882-.343-3.688-.97-5.355l.005.003zM27.659 15.048c1.796 0 2.312 2.033 1.517 3.084-.715.927-.853 1.205-.814 2.078.029.735.705 1.635 2.25 1.67h10.806c-2.418-5.177-7.67-8.759-13.759-8.759-6.09 0-11.342 3.582-13.763 8.76h10.805c1.545-.036 2.224-.936 2.256-1.671.036-.873-.102-1.15-.82-2.078-.79-1.051-.28-3.084 1.522-3.084M27.659 43.481c3.083 0 5.952-.917 8.345-2.5l.003.017-7.401-11.067c-.52-.712-1.347-.774-1.897 0l-7.4 11.067.002-.017a15.074 15.074 0 0 0 8.348 2.5M85.558 51.76c8.74-5.412 13.394-13.162 16.376-21.919 2.647-7.772 3.295-16.867.382-23.967-4.365 1.501-6.923 1.966-9.3 2.335-2.215.344-4.195.555-7.438.6h-.02c-3.24-.045-5.222-.256-7.433-.6-2.376-.37-4.936-.834-9.304-2.335-2.907 7.1-2.26 16.195.385 23.967 2.982 8.757 7.638 16.507 16.372 21.919h-.02z"/>
        <path fill="#0080C7" d="M14.956 25.192l7.714.71c.553.046.6.28.472.603l-5.4 10.312a13.011 13.011 0 0 1-3.16-8.517c0-1.07.131-2.112.374-3.108M24.023 15.737c-.767 1.285-.146 2.956.583 3.75.136.134.069.28-.053.314l-6.835.005a13.12 13.12 0 0 1 6.305-4.069M40.357 25.192l-7.71.71c-.557.046-.602.28-.474.603l5.403 10.312A13.016 13.016 0 0 0 40.73 28.3c0-1.07-.127-2.112-.373-3.108M31.288 15.737c.771 1.285.148 2.956-.581 3.75-.135.134-.07.28.055.314l6.832.005a13.06 13.06 0 0 0-6.306-4.069M85.564 49.61c5.911-3.711 12.608-12.151 15.285-23.249 1.425-5.887 1.822-12.505-.029-17.752-2.65.704-5.119 1.288-7.673 1.631-2.554.348-5.081.595-7.57.611h-.016c-2.488-.016-5.015-.263-7.567-.61-2.56-.344-5.029-.928-7.671-1.632-1.855 5.247-1.455 11.865-.038 17.752 2.68 11.098 9.38 19.538 15.293 23.25h-.014zM27.444 32.432c.118-.154.29-.168.43 0l5.104 7.818a13.115 13.115 0 0 1-10.642 0l5.108-7.818c.142-.168.308-.154.43 0"/>
        <path fill="#FFF" d="M79.537 14.794c-2.001 1.04-2.692 3.48-1.797 5.45.78 1.71 2.316 2.841 4.1 3.37.895.27 1.8.337 2.726.378 1.13.057 2.154.091 3.246.368.232.06.483.195.605.419.29.548.027 1.144-.547 1.311-.01.953-.096 2.867-.096 2.867s4.636-.44 3.852-4.61c-.19-.999-.976-2.022-1.87-2.485-2.326-1.191-4.878-.674-7.261-1.446-.8-.26-1.92-.657-2.136-1.559-.088-.361-.01-1.083.364-1.198.599-.193 1.266.311 2.14.51.55.128 1.093.125 1.528-.006.191-.056.476-.132.496-.242-.022-.096-.238-.182-.352-.241-.265-.139-.543-.202-.835-.312a10.93 10.93 0 0 1-1.447-.685c.457-.094 1.225-.116 1.676-.065.365.047 1.491.031 1.827-.057.073-.017.24-.085.165-.21-.132-.22-.35-.297-.496-.503-.33-.447-.618-.908-1.144-1.109-1.524-.584-3.225-.734-4.744.055"/>
        <path fill="#FFF" d="M87.273 29.674l.025-4.868s-.626-.13-1.5-.185c-1.137-.076-1.65-.063-1.65-.063l-.007.413s-.549.23-.633.377c-.038.069-.185.252-.113.435.448 1.201 1.07 2.37 1.245 3.656.847.116 1.597.094 2.633.235"/>
        <path fill="#FFF" d="M81.453 28.935c-.204 1.91 1.042 2.93 2.422 3.258 1.089.26 2.144.316 3.28.45.143.016.447.023.678.126.198.087.3.204.338.33.055.178.032.314-.086.454-.12.154-.448.242-.448.242l-.067 2.294s.925-.038 1.676-.486c.706-.427 1.145-.973 1.305-1.652.183-.792.057-1.565-.5-2.334-.374-.512-1.02-.877-1.673-1.104-1.355-.475-2.82-.403-4.226-.604-.213-.027-.407-.196-.429-.387-.035-.36.297-.52.297-.52s-.165-.55-.345-1.078c-.155-.405-.385-.964-.544-1.262a2.783 2.783 0 0 0-1.678 2.273"/>
        <path fill="#FFF" d="M87.155 33.176l-.036 4.119-1.03-.473-1.02-.425-.025-3.435c.916.108 1.334.12 2.111.214"/>
        <path fill="#FFF" d="M82.54 35.45c-.56 1.332.147 2.637 1.267 3.19.587.284 1.358.547 1.99.788.619.238 1.712.918 1.792 1.244.057.2-.18.394-.18.394l-.026 1.611s.67-.144 1.17-.555c.462-.385.803-.883.798-1.685-.005-.882-.411-1.569-1.666-2.298-.97-.573-2.147-1.027-3.063-1.435-.137-.057-.254-.318-.2-.478.054-.171.16-.231.16-.231l-.021-1.857s-.706.138-1.039.333c-.308.181-.77.483-.982.98"/>
        <path fill="#FFF" d="M86.984 40.924c.012-.137-.035-.153-.093-.243-.277-.286-.677-.487-.77-.542-.29-.17-.921-.407-.921-.407s.043 4.213.12 6.387c.017.498.294.624.768.651.58.036.749-.33.759-.541.022-.696.109-3.719.137-5.305M87.43 13.815c.21.157.21.166.272.477.145.672-.004 1.724.13 2.19.067.146.217.143.332.08.933-.505 1.57-1.37 2.508-1.771.448-.188 1.674.428 1.39 1.352-.134.432-.327.5-.6.781-.544.573-1.325 1.112-2.006 1.848-.46.505-1.013.87-1.37 1.438-.112.179-.297.426-.297.426-1.311-.267-2.628-.22-3.65-.426l-.004-1.52s1.044-.177 1.239-.688c.012-.043-.015-.221-.166-.329a2.714 2.714 0 0 0-.58-.305c1.047.164 1.697.34 2.705.78.068-.112.027-.364-.048-.448-.139-.154-.214-.206-.566-.292-.618-.159-2.294-.362-2.294-.362s.775-.006 1.421-.113c.319-.053.578-.113.649-.22.072-.162-.062-.407-.288-.64-.145-.159-.312-.322-.436-.487-.152-.213-.403-.594-.674-.835-.239-.21-.826-.516-.826-.516s-.11-.815.057-1.143c.124-.245.437-.384.605-.3.752.424 1.494.85 2.497 1.023M84.183 42.476c-.254.266-.68.8-.75 1.663-.069.77.107.982.303 1.4.157.34.528.317.658.003.109-.259-.047-.497.048-1.065.075-.41.401-.638.401-.638l-.031-1.87s-.292.153-.629.507"/>
        <path fill="#000" d="M84.127 15.383c-.193.137-.326.28-.546.314-.428.068-.367-.305-.662-.511-.184-.13-.353.033-.513-.266.621.017 1.44-.037 1.905.436-.056-.03-.159.01-.184.027"/>
        <path fill="#231F20" d="M129.677 15.853h1.22c2.4 0 3.643-.963 3.643-3.878 0-2.463-.813-3.513-3.277-3.513h-1.586v7.391zm0-8.033h1.372c1.906 0 2.656-.836 2.656-2.978 0-2.121-.622-3.022-2.785-3.022h-1.243v6zm-5.398 8.033h2.056V1.82h-2.056v-.642h8.098c2.677 0 4.799.557 4.799 3.149 0 2.421-1.928 3.514-4.114 3.664v.042c2.592.065 5.077 1.35 5.077 4.264 0 2.4-1.649 4.2-5.312 4.2h-8.548v-.644zM138.838 15.853h1.542V1.82h-1.542v-.642h1.328c1.093 0 2.207-.043 3.3-.129v14.804h1.543v.643h-6.17v-.643zM157.002 15.853h1.543v.643c-2.1.022-3.342.042-4.628.128v-1.628h-.042c-.729 1.18-2.079 1.757-3.407 1.757-2.164 0-3.685-.772-3.685-3.534V6.64h-1.542v-.643h1.327c1.093 0 2.207-.042 3.3-.128v7.99c0 1.65.793 1.865 1.671 1.865 1.372 0 2.378-1.136 2.378-3.428V6.64h-1.542v-.643h1.328c1.093 0 2.207-.042 3.3-.128v9.983zM166.443 10.07v-.987c0-1.22-.3-2.7-1.756-2.7-1.993 0-2.037 2.315-2.1 3.686h3.856zm-3.857.642v.92c0 1.908.343 4.222 2.786 4.222 1.799 0 2.935-1.029 3.642-2.571l.578.257c-.857 2.142-2.57 3.213-4.777 3.213-3.322 0-5.57-2.142-5.57-5.505 0-3.171 2.292-5.507 5.57-5.507 2.784 0 4.97 1.8 4.97 4.97h-7.199zM184.84 6.513h-.643c-.193-2.657-2.336-4.95-4.82-4.95-4.2 0-4.671 4.307-4.671 7.263 0 2.7.257 7.285 4.52 7.285 2.528 0 4.8-2.336 5.078-4.928h.642v4.327c-1.606.665-3.92 1.243-5.806 1.243-4.905 0-8.034-3.3-8.034-7.927 0-4.605 3.129-7.905 8.034-7.905 1.886 0 3.685.47 5.7 1.243v4.35zM185.795 15.853h1.543V6.641h-1.543v-.643h1.327c1.094 0 2.208-.042 3.3-.128v1.735h.043c.43-1.092 1.5-1.863 2.699-1.863 1.351 0 2.057.942 2.057 2.163 0 .879-.428 1.435-1.392 1.435-.836 0-1.307-.427-1.307-1.134 0-.622.043-.686.043-1.008 0-.257-.108-.429-.408-.429-1.242 0-1.735 2.893-1.735 4.564v4.52h1.543v.643h-6.17v-.643zM201.002 6.384c-2.23 0-2.23 2.357-2.23 4.863 0 2.507 0 4.864 2.23 4.864 2.227 0 2.227-2.357 2.227-4.864 0-2.506 0-4.863-2.227-4.863m0 10.37c-3.322 0-5.57-2.144-5.57-5.507 0-3.17 2.291-5.506 5.57-5.506 3.277 0 5.569 2.335 5.569 5.506 0 3.17-2.292 5.507-5.57 5.507M207.7 12.533h.641c.086 1.928 1.35 3.578 3.215 3.578 1.092 0 2.164-.429 2.164-1.543 0-2.464-5.87-1.37-5.87-5.527 0-2.207 1.692-3.3 3.77-3.3 1.607 0 2.485.365 3.32.687V9.19h-.643c-.149-1.5-1.306-2.807-2.827-2.807-.857 0-1.564.45-1.564 1.328 0 2.185 5.87 1.179 5.87 5.378 0 2.378-2.143 3.664-4.306 3.664-1.628 0-2.979-.472-3.77-.75v-3.471zM216.865 12.533h.642c.085 1.928 1.35 3.578 3.213 3.578 1.093 0 2.165-.429 2.165-1.543 0-2.464-5.87-1.37-5.87-5.527 0-2.207 1.692-3.3 3.77-3.3 1.607 0 2.485.365 3.32.687V9.19h-.643c-.15-1.5-1.307-2.807-2.827-2.807-.858 0-1.565.45-1.565 1.328 0 2.185 5.872 1.179 5.872 5.378 0 2.378-2.143 3.664-4.307 3.664-1.629 0-2.978-.472-3.77-.75v-3.471zM236.352 15.853h1.222c2.399 0 3.642-.963 3.642-3.878 0-2.463-.814-3.513-3.278-3.513h-1.586v7.391zm0-8.033h1.373c1.905 0 2.655-.836 2.655-2.978 0-2.121-.621-3.022-2.785-3.022h-1.243v6zm-5.398 8.033h2.057V1.82h-2.057v-.642h8.098c2.678 0 4.798.557 4.798 3.149 0 2.421-1.927 3.514-4.113 3.664v.042c2.593.065 5.078 1.35 5.078 4.264 0 2.4-1.65 4.2-5.313 4.2h-8.548v-.644zM245.513 15.853h1.543V1.82h-1.543v-.642h1.328c1.093 0 2.207-.043 3.3-.129v14.804h1.543v.643h-6.17v-.643zM263.678 15.853h1.543v.643c-2.1.022-3.342.042-4.629.128v-1.628h-.042c-.728 1.18-2.078 1.757-3.406 1.757-2.164 0-3.686-.772-3.686-3.534V6.64h-1.542v-.643h1.328c1.093 0 2.207-.042 3.3-.128v7.99c0 1.65.792 1.865 1.67 1.865 1.372 0 2.378-1.136 2.378-3.428V6.64h-1.541v-.643h1.327c1.093 0 2.207-.042 3.3-.128v9.983zM273.118 10.07v-.987c0-1.22-.3-2.7-1.757-2.7-1.993 0-2.035 2.315-2.1 3.686h3.857zm-3.857.642v.92c0 1.908.344 4.222 2.786 4.222 1.798 0 2.936-1.029 3.641-2.571l.58.257c-.857 2.142-2.572 3.213-4.778 3.213-3.32 0-5.57-2.142-5.57-5.505 0-3.171 2.292-5.507 5.57-5.507 2.785 0 4.97 1.8 4.97 4.97h-7.2zM277.483 11.333h.75c.105 2.185 1.864 4.648 4.627 4.648 1.691 0 3.298-.684 3.298-2.527 0-3.792-8.44-2.549-8.44-7.926 0-3.257 2.678-4.608 5.013-4.608 1.264 0 2.378.215 4.328.943l.171 3.665h-.728c-.407-2.1-1.95-3.836-4.136-3.836-1.392 0-2.42.943-2.42 2.335 0 3.364 8.27 2.1 8.27 8.056 0 2.763-2.443 4.67-5.55 4.67-1.692 0-3.405-.321-4.99-1.006l-.193-4.414zM288.938 15.853h1.541V1.82h-1.541v-.642h1.327c1.093 0 2.206-.043 3.3-.129v6.406h.042c.73-1.136 1.907-1.713 3.407-1.713 2.163 0 3.684 1.156 3.684 3.534v6.577h1.544v.643h-6.17v-.643h1.541V8.848c0-1.671-.792-2.079-1.67-2.079-1.2 0-2.378 1.158-2.378 2.957v6.127h1.542v.643h-6.17v-.643zM305.555.92c.92 0 1.671.75 1.671 1.672 0 .921-.75 1.671-1.671 1.671-.922 0-1.672-.75-1.672-1.67 0-.923.75-1.672 1.672-1.672zm-3.085 14.934h1.542V6.64h-1.542v-.642h1.328c1.092 0 2.207-.043 3.3-.13v9.985h1.542v.643h-6.17v-.643zM316.541 10.07v-.987c0-1.22-.3-2.7-1.756-2.7-1.993 0-2.036 2.315-2.1 3.686h3.856zm-3.856.642v.92c0 1.908.343 4.222 2.785 4.222 1.8 0 2.936-1.029 3.642-2.571l.578.257c-.857 2.142-2.57 3.213-4.777 3.213-3.32 0-5.57-2.142-5.57-5.505 0-3.171 2.293-5.507 5.57-5.507 2.785 0 4.97 1.8 4.97 4.97h-7.198zM320.413 15.853h1.542V1.82h-1.542v-.642h1.328c1.092 0 2.207-.043 3.3-.129v14.804h1.542v.643h-6.17v-.643zM332.77 6.641c-2.12 0-2.228 2.057-2.228 4.607 0 3.106.579 4.605 2.228 4.605 2.25 0 2.4-2.57 2.4-4.605 0-1.736-.15-4.607-2.4-4.607zm2.336 8.613h-.042c-.772 1.264-1.994 1.5-3.151 1.5-3.256 0-4.627-2.529-4.627-5.506 0-2.892 1.65-5.506 4.798-5.506 1.35 0 2.486.47 2.98 1.542h.042V1.82h-1.544v-.643h1.33c1.092 0 2.206-.043 3.299-.129v14.804h1.542v.643c-2.1.022-3.342.043-4.627.13v-1.372zM130.17 32.08c-2.228 0-2.228 2.357-2.228 4.863 0 2.506 0 4.863 2.228 4.863s2.228-2.357 2.228-4.863c0-2.506 0-4.863-2.228-4.863m0 10.369c-3.32 0-5.57-2.142-5.57-5.506 0-3.171 2.292-5.506 5.57-5.506 3.278 0 5.57 2.335 5.57 5.506 0 3.17-2.292 5.506-5.57 5.506M136.268 41.549h1.542v-9.212h-1.542v-.643h1.542v-1.307c0-2.292 1.2-3.77 4.285-3.77.986 0 3.471.364 3.471 2.313 0 1.05-.493 1.5-1.328 1.5-1.093 0-1.372-.6-1.372-1.371 0-.857 0-1.8-.92-1.8-.943 0-1.05.792-1.05 1.607v2.828h1.778v.643h-1.778v9.212h1.778v.643h-6.406v-.643zM157.257 41.807c4.007 0 4.264-4.586 4.264-7.285 0-2.678-.257-7.263-4.264-7.263-4.007 0-4.264 4.585-4.264 7.263 0 2.699.257 7.285 4.264 7.285m0-15.19c4.906 0 8.034 3.299 8.034 7.905 0 4.627-3.128 7.926-8.034 7.926-4.906 0-8.034-3.299-8.034-7.926 0-4.606 3.128-7.906 8.034-7.906M166.31 41.549h1.542V27.516h-1.541v-.643h1.327c1.094 0 2.207-.042 3.3-.128v9.749h1.265l2.485-4.157h-1.672v-.643h4.37v.643h-1.798l-1.565 2.55 4.499 6.662h1.029v.643h-6.064v-.643h1.415l-2.978-4.413h-.986v4.413h1.543v.643h-6.17v-.643zM179.864 41.549h1.543V27.516h-1.543v-.643h1.329c1.092 0 2.206-.042 3.299-.128V41.55h1.543v.643h-6.17v-.643zM193.68 35.743l-1.843.664c-1.158.407-1.8 1.028-1.8 2.956 0 1.094.385 2.058 1.585 2.058 2.035 0 2.058-2.593 2.058-3.836v-1.842zm3.084 4.007c0 1.371.215 1.799 1.522 1.799v.643c-.794.064-1.608.128-2.4.128-1.286 0-1.928-.279-2.142-1.542h-.043c-.472 1.35-2.1 1.67-3.472 1.67-2.164 0-3.278-1.327-3.278-3.405 0-2.572 1.97-2.785 4.585-3.3.493-.107 1.586-.407 2.144-.643v-1.328c0-.986-.323-1.692-1.886-1.692-2.914 0-.536 2.85-2.936 2.85-.642 0-1.178-.236-1.178-1.158 0-1.864 2.549-2.335 4.07-2.335 2.871 0 5.014.321 5.014 3.235v5.078zM198.642 41.549h1.543V27.516h-1.543v-.643h1.328a42.28 42.28 0 0 0 3.3-.128v6.406h.043c.728-1.136 1.906-1.714 3.406-1.714 2.163 0 3.685 1.157 3.685 3.534v6.578h1.543v.643h-6.17v-.643h1.541v-7.005c0-1.672-.792-2.08-1.67-2.08-1.2 0-2.378 1.158-2.378 2.958v6.127h1.542v.643h-6.17v-.643zM218.216 32.08c-2.227 0-2.227 2.357-2.227 4.863 0 2.506 0 4.863 2.227 4.863 2.229 0 2.229-2.357 2.229-4.863 0-2.506 0-4.863-2.229-4.863m0 10.369c-3.32 0-5.57-2.142-5.57-5.506 0-3.171 2.293-5.506 5.57-5.506 3.278 0 5.57 2.335 5.57 5.506 0 3.17-2.292 5.506-5.57 5.506M224.7 41.549h1.544v-9.212H224.7v-.643h1.327c1.094 0 2.208-.042 3.3-.13v1.63h.043c.707-1.264 2.077-1.757 3.407-1.757 1.82 0 3.042.493 3.534 2.036h.043c.687-1.543 2.25-2.036 3.557-2.036 2.163 0 3.684.772 3.684 3.534v6.578h1.543v.643h-6.17v-.643h1.543v-7.135c0-1.734-.793-1.95-1.67-1.95-1.373 0-2.38 1.137-2.38 3.43v5.655h1.544v.643h-6.17v-.643h1.541v-7.135c0-1.734-.792-1.95-1.67-1.95-1.371 0-2.38 1.137-2.38 3.43v5.655h1.544v.643h-6.17v-.643zM252.777 35.743l-1.842.664c-1.158.407-1.801 1.028-1.801 2.956 0 1.094.386 2.058 1.585 2.058 2.037 0 2.058-2.593 2.058-3.836v-1.842zm3.085 4.007c0 1.371.214 1.799 1.52 1.799v.643c-.793.064-1.606.128-2.4.128-1.285 0-1.927-.279-2.141-1.542h-.043c-.472 1.35-2.1 1.67-3.47 1.67-2.165 0-3.279-1.327-3.279-3.405 0-2.572 1.971-2.785 4.585-3.3.493-.107 1.585-.407 2.143-.643v-1.328c0-.986-.322-1.692-1.886-1.692-2.914 0-.535 2.85-2.935 2.85-.644 0-1.179-.236-1.179-1.158 0-1.864 2.55-2.335 4.07-2.335 2.872 0 5.015.321 5.015 3.235v5.078z"/>
    </g>
</svg>
