<svg xmlns="http://www.w3.org/2000/svg" width="25" height="14" viewBox="0 0 25 14">
    <path fill="#FCFDFD" fill-rule="evenodd" d="M21.705 6.298c-.107.726-.56 1.36-1.127 1.81-.471.4-1.068.603-1.657.755-.036.543.026 1.089-.023 1.63-.408-.37-.74-.813-1.132-1.2-.12-.113-.22-.26-.371-.33-.877-.02-1.759.048-2.629-.09a.497.497 0 0 1 .107-.25c.363-.437.587-.97.764-1.504.378-1.145.178-2.435-.433-3.461-.627.092-1.201.432-1.631.892-.415.446-.585 1.073-.57 1.672-.048.663-.442 1.256-.923 1.696-.644.639-1.545.963-2.438 1.035-.636.022-1.274-.004-1.91.01-.089-.003-.15.073-.212.122-.38.38-.74.78-1.084 1.193a.733.733 0 0 1-.267.194c-.015-.52.008-1.041-.001-1.561-.384-.195-.822-.259-1.192-.487-.749-.444-1.404-1.149-1.574-2.027a6.22 6.22 0 0 1 0-1.032c.171-.842.777-1.53 1.49-1.976a4.437 4.437 0 0 1 2.225-.587h2.159c.345-.006.684.066 1.029.078a.523.523 0 0 1-.124.315c-.213.28-.382.59-.519.913-.212.447-.362.933-.364 1.432-.005.481-.024.974.12 1.44.099.395.28.762.462 1.123.754-.137 1.493-.548 1.889-1.222.123-.223.245-.462.25-.722.006-.765.225-1.58.79-2.126.678-.746 1.68-1.164 2.68-1.208.798-.051 1.599-.01 2.398-.023 1.156-.041 2.358.392 3.133 1.268.546.589.832 1.433.685 2.228m2.826-.51c-.01-.235.016-.48-.061-.707-.115-.339-.198-.688-.346-1.015-.347-.823-.952-1.51-1.64-2.067-.706-.507-1.478-.942-2.327-1.155-.741-.193-1.5-.371-2.27-.347H15.67a3.8 3.8 0 0 0-.878.092 8 8 0 0 0-2.043.58c-.234.121-.468-.036-.685-.117A9.45 9.45 0 0 0 9.768.51a71.379 71.379 0 0 0-3.206.007c-.931.11-1.856.34-2.712.727a7.024 7.024 0 0 0-1.928 1.38c-.193.198-.338.436-.508.654C.96 3.887.73 4.623.555 5.353c-.033.288-.021.58-.016.87.003.35.151.675.24 1.01.174.642.561 1.197.978 1.705.244.328.585.563.881.84.719.549 1.555.935 2.426 1.175.027.498-.11.985-.131 1.48-.01.294-.076.583-.059.878.67-.72 1.45-1.326 2.16-2.005a.265.265 0 0 1 .208-.076c.78 0 1.562.046 2.338-.037.288-.02.58.009.865-.04.702-.128 1.396-.321 2.04-.63.185.008.341.17.521.226 1.312.506 2.742.5 4.128.487.27 0 .536-.061.806-.047.101.001.176.078.247.142.409.393.809.798 1.239 1.169.264.232.497.5.78.71-.03-.742-.106-1.484-.163-2.226.267-.147.574-.201.85-.33a6.297 6.297 0 0 0 2.938-2.364c.295-.495.476-1.044.66-1.586.06-.301.037-.61.04-.915"/>
</svg>
