<?xml version="1.0" encoding="UTF-8" standalone="no"?>
<svg width="12px" height="10px" viewBox="0 0 12 10" version="1.1" xmlns="http://www.w3.org/2000/svg" xmlns:xlink="http://www.w3.org/1999/xlink">
    <!-- Generator: Sketch 46.2 (44496) - http://www.bohemiancoding.com/sketch -->
    <title>Fill 1@1x</title>
    <desc>Created with Sketch.</desc>
    <defs></defs>
    <g id="Symbols" stroke="none" stroke-width="1" fill="none" fill-rule="evenodd">
        <g id="Fill-1" fill="#FFFFFF">
            <polygon points="8.48592409 5.00796411 8.51546425 8.14051152 1.11923316 8.21033633 1.06925358 2.89557665 6.26772613 2.84638529 7.24374516 1.84984916 0.0747346419 1.91758072 0.143363312 9.20702198 9.50998319 9.11850745 9.46194313 4.01127847"></polygon>
            <path d="M6.69095615,5.80227742 L6.69080696,5.80227742 C6.63157743,5.80287549 6.57428741,5.77970023 6.53206586,5.73798477 L5.68166712,4.90008702 C5.5936434,4.8133667 5.59215147,4.67162383 5.67883246,4.58325881 L8.32774992,1.87698664 C8.34744337,1.85680174 8.35863282,1.82929046 8.35803605,1.80148015 C8.35743928,1.77157659 8.34610063,1.74481291 8.3261088,1.72582415 C8.32566122,1.72537559 8.32536284,1.72492704 8.32491526,1.72462801 L7.060805,0.508450228 C6.99516019,0.445353716 6.97412401,0.3486157 7.00784157,0.263839108 C7.04126075,0.179212034 7.12272,0.123292377 7.21357839,0.12239527 L10.9800988,0.0866605163 C11.1036304,0.0856138918 11.2047831,0.185043228 11.2059767,0.308843966 L11.2407386,3.9993918 C11.2414845,4.08955103 11.1883719,4.1716363 11.1057191,4.20737106 C11.0227679,4.2429563 10.9269862,4.22576175 10.8620873,4.16341283 L9.66377109,3.01122867 C9.62169873,2.97070934 9.55456199,2.972055 9.51427995,3.01347143 L6.8485037,5.73514393 C6.80702812,5.77745747 6.75018567,5.80182887 6.69095615,5.80227742" id="Fill-4"></path>
        </g>
    </g>
</svg>