<svg xmlns="http://www.w3.org/2000/svg" xmlns:xlink="http://www.w3.org/1999/xlink" width="59" height="59" viewBox="0 0 59 59">
    <defs>
        <rect id="b" width="318.902" height="342" x=".502" y=".602" rx="4"/>
        <filter id="a" width="111.3%" height="110.5%" x="-5.6%" y="-3.5%" filterUnits="objectBoundingBox">
            <feOffset dy="6" in="SourceAlpha" result="shadowOffsetOuter1"/>
            <feGaussianBlur in="shadowOffsetOuter1" result="shadowBlurOuter1" stdDeviation="5"/>
            <feColorMatrix in="shadowBlurOuter1" values="0 0 0 0 0 0 0 0 0 0 0 0 0 0 0 0 0 0 0.100996377 0"/>
        </filter>
    </defs>
    <g fill="none" fill-rule="evenodd">
        <g transform="translate(-131 -36)">
            <use fill="#000" filter="url(#a)" xlink:href="#b"/>
            <use fill="#FFF" xlink:href="#b"/>
        </g>
        <path fill="#0081C6" d="M59 29.5C59 45.793 45.792 59 29.5 59S0 45.793 0 29.5C0 13.208 13.208 0 29.5 0S59 13.208 59 29.5"/>
        <path fill="#FFF" d="M30 25.011h.002V25z"/>
        <path fill="#FFF" d="M30 25.011h.002V25z"/>
        <path fill="#FFF" d="M30 25.011h.002V25z"/>
        <path fill="#FFF" d="M40.457 22.557l-.478-.821s-.203-.335-.17-.95c.17-.79.266-1.61.266-2.452C40.075 11.942 34.92 7 28.56 7c-6.296 0-11.408 4.84-11.508 11.147l-.363.11-.024.565-1.147.372.07.456-1.312 2.594s-.621.977 0 1.72l2.352 2.39.084.543s.478.782 1.816.665l.092 1.065s.147.329.576.329l.684-.263 3.73 2.338s.924.684 1.783.684l.362-.124c.086.243.276.409.644.409h3.854c.547 0 .705-.363.705-.812 0-.447-.193-.811-.741-.811h-3.818c-.369 0-.559.166-.644.41h-.18s-.658-.01-1.338-.508l-3.86-2.915c1.68-3.674.498-7.274-1.062-9.478l-.906-.05c.388-5.534 4.628-9.663 10.151-9.663 5.78 0 10.453 4.539 10.453 10.434 0 .603.072.612.003 1.307 0 0-.363 3.178-.594 4.02-.23.844-1.403 3.56-.59 3.15 0 0 2.912-1.868 3.15-3.276 0 0 .168-.332-.525-1.25"/>
        <path fill="#FFF" d="M33.186 34.863V31.1c3.807-1.761 5.999-6.53 5.999-11.317 0-6.025-4.337-9.784-9.683-9.784-4.787 0-8.76 3.01-9.544 7.96l.906.091c1.39 1.911 2.35 4.688 1.579 8.387-.033.28-.462 1.24-.296 1.434.78.905 1.819 1.606 3.948 2.797.227-.07.208-.582.991-.573 1.58.02 2.8-.046 4.194.097.804.083 1.154.678 1.129 1.812.036.738-.281 1.67-.87 1.707-2.73.17-4.37.04-4.692-.077-.19-.068-.481-.51-.481-.51-.138.087-.146.117-.589.161l.038 1.577c-11.28.682-13.68 5.185-14.814 11.038-.263 1.35 37.327 1.588 36.997-.033-1.183-5.717-3.756-10.33-14.812-11.005"/>
    </g>
</svg>
