<svg xmlns="http://www.w3.org/2000/svg" xmlns:xlink="http://www.w3.org/1999/xlink" width="92" height="92" viewBox="0 0 92 92">
    <defs>
        <path id="a" d="M0 .612h91.389V92H0z"/>
    </defs>
    <g fill="none" fill-rule="evenodd">
        <g transform="translate(0 -.612)">
            <mask id="b" fill="#fff">
                <use xlink:href="#a"/>
            </mask>
            <path fill="#0081C6" d="M91.39 46.306C91.39 71.542 70.93 92 45.694 92 20.457 92 0 71.542 0 46.306 0 21.07 20.457.612 45.695.612 70.931.612 91.39 21.07 91.39 46.306" mask="url(#b)"/>
        </g>
        <path fill="#FFF" d="M53.781 63.986c0 5.298-2.036 9.964-5.359 13.159 7.13 3.19 15.666 1.233 20.675-4.981L53.781 61.437v2.549zm11.766-17.07a17.362 17.362 0 0 0-11.763-3.051l-.003 14.043 16.953 11.874c4.37-7.733 2.236-17.668-5.187-22.866zM37.458 11.992c-7.736.005-13.688 6.27-13.693 13.072l.005 38.92c-.006 8.667 5.95 14.934 13.688 14.932 7.729.002 13.687-6.265 13.687-14.93l.002-38.924c-.002-6.8-5.96-13.065-13.69-13.07m11.053 50.75c0 5.21-1.18 8.063-3.325 10.208-2.144 2.149-4.688 3.328-7.72 3.328-3.04 0-5.584-1.18-7.732-3.325-2.142-2.148-3.328-5.001-3.328-10.208l-.003-9.873c-.001-.027-.013-.05-.013-.078l-.004-26.475a7.898 7.898 0 0 1-.045-.88c.009-3.228 1.763-6.115 4.257-8.048l.003.004a1.43 1.43 0 0 1 2.009.256c.484.624.37 1.526-.256 2.01-1.93 1.493-3.156 3.645-3.146 5.778 0 .222.013.434.036.637l.015.179.003 20.64h19.25l-.001 15.847"/>
    </g>
</svg>
