<svg xmlns="http://www.w3.org/2000/svg" xmlns:xlink="http://www.w3.org/1999/xlink" width="86" height="88" viewBox="0 0 86 88">
    <defs>
        <path id="a" d="M0 .697h85.327v86.558H0z"/>
    </defs>
    <g fill="none" fill-rule="evenodd">
        <circle cx="43" cy="44" r="42" fill="#FFF"/>
        <g transform="translate(0 .15)">
            <mask id="b" fill="#fff">
                <use xlink:href="#a"/>
            </mask>
            <path fill="#B62175" d="M27.318 25.566l-.014-.174a4.498 4.498 0 0 1-.037-.597c-.008-2.022 1.14-4.06 2.939-5.472.583-.461.69-1.316.238-1.905a1.324 1.324 0 0 0-1.877-.245l-.003-.003c-2.327 1.828-3.966 4.564-3.974 7.625 0 .262.011.543.045.83l.005 25.077c0 .028.012.048.012.071l.002 9.355c0 4.931 1.103 7.633 3.104 9.669 2.01 2.032 4.384 3.148 7.219 3.148 2.831 0 5.211-1.116 7.212-3.151 2.004-2.033 3.101-4.735 3.101-9.669V45.113H27.32l-.002-19.547zm38.725 41.225l-15.83-11.245V42.245a16.028 16.028 0 0 1 10.984 2.892c6.934 4.92 8.927 14.332 4.846 21.654m-20.832 6.975c3.101-3.026 5.001-7.444 5.001-12.464v-2.414L64.514 69.05c-4.676 5.885-12.646 7.738-19.303 4.717m-10.238 1.677c-7.226.003-12.786-5.936-12.78-14.143l-.003-36.863c.003-6.445 5.557-12.379 12.783-12.381 7.218.002 12.778 5.938 12.78 12.378l-.002 36.868c0 8.205-5.56 14.144-12.778 14.141M42.663.696C19.1.696-.001 20.073-.001 43.976c0 23.903 19.1 43.28 42.664 43.28 23.563 0 42.664-19.377 42.664-43.28 0-23.903-19.101-43.28-42.664-43.28" mask="url(#b)"/>
        </g>
    </g>
</svg>
