<svg xmlns="http://www.w3.org/2000/svg" xmlns:xlink="http://www.w3.org/1999/xlink" width="92" height="92" viewBox="0 0 92 92">
    <defs>
        <path id="a" d="M0 .612h91.389V92H0z"/>
    </defs>
    <g fill="none" fill-rule="evenodd">
        <g transform="translate(0 -.612)">
            <mask id="b" fill="#fff">
                <use xlink:href="#a"/>
            </mask>
            <path fill="#0081C6" d="M91.389 46.306C91.389 71.542 70.93 92 45.695 92 20.458 92 0 71.542 0 46.306 0 21.07 20.458.612 45.695.612c25.236 0 45.694 20.458 45.694 45.694" mask="url(#b)"/>
        </g>
        <path fill="#FFF" d="M59.924 40.437H29.9a.839.839 0 1 1 0-1.68h30.024a.84.84 0 1 1 0 1.68zm0 4.75H29.899a.84.84 0 0 1 0-1.68h30.025a.84.84 0 1 1 0 1.68zm.001 4.749H29.9a.84.84 0 1 1 0-1.68h30.025a.84.84 0 0 1 0 1.68zm-.001 4.75H29.9a.839.839 0 1 1 0-1.678h30.024a.839.839 0 1 1 0 1.678zm-14.958 4.75H29.9a.84.84 0 1 1 0-1.68h15.066a.84.84 0 0 1 0 1.68zm-4.61-43.101v17.943H22.532v38.006h44.76v-55.95H40.356z"/>
        <path fill="#FFF" d="M38.708 16.335v16.177H22.532z"/>
    </g>
</svg>
