<svg xmlns="http://www.w3.org/2000/svg" xmlns:xlink="http://www.w3.org/1999/xlink" width="92" height="92" viewBox="0 0 92 92">
    <defs>
        <path id="a" d="M0 .612h91.389V92H0z"/>
    </defs>
    <g fill="none" fill-rule="evenodd">
        <g transform="translate(0 -.612)">
            <mask id="b" fill="#fff">
                <use xlink:href="#a"/>
            </mask>
            <path fill="#0081C6" d="M91.39 46.306C91.39 71.542 70.93 92 45.694 92 20.457 92 0 71.542 0 46.306 0 21.07 20.457.612 45.695.612 70.931.612 91.39 21.07 91.39 46.306" mask="url(#b)"/>
        </g>
        <path fill="#FFF" d="M53.3 51.027c-.097.969-.975 8.019-6.21 9.278a1.585 1.585 0 0 1-.94.991c-.079 1.455.08 6.149 5.351 6.334 8.277.29 8.225-4.2 7.988-5.665a2.91 2.91 0 1 1 1.196-.115c.17 1.479.215 7.175-9.28 6.851-6.253-.214-6.496-5.718-6.418-7.419a1.584 1.584 0 0 1-.875-.895c-5.345-.973-6.406-7.886-6.57-9.342-15.273 1.517-18.7 8.196-20.356 16.762-.406 2.072 57.198 2.438 56.69-.051-1.732-8.401-5.425-15.244-20.576-16.729"/>
        <path fill="#FFF" d="M60.373 27.696c0-2.171-.37-4.148-1.036-5.906H31.73c-.666 1.758-1.036 3.735-1.036 5.906 0 7.351 3.357 14.676 9.19 17.381v5.777c-.327.02-.641.046-.958.07.225 1.511 1.329 7.168 5.263 8.156a1.582 1.582 0 0 1 1.4-.851c.578 0 1.078.312 1.355.774 3.937-1.232 5.049-7.057 5.214-8.076-.324-.025-.644-.053-.978-.073v-5.777c5.834-2.705 9.192-10.03 9.192-17.381M45.635 18.146c-1.78 0-3.222-1.452-3.222-3.244 0-1.792 1.221-3.24 3.222-3.243 1.916 0 3.221 1.451 3.221 3.243 0 1.792-1.443 3.244-3.22 3.244zm11.54-.164c-1.505-1.878-3.464-3.3-5.712-4.2l.004.03c-.467-2.774-2.705-4.879-5.832-4.879-3.217.004-5.33 2.047-5.812 4.763-2.324.894-4.387 2.36-5.93 4.286h6.672c1.037 1.728 2.917 2.89 5.07 2.89 2.154 0 4.034-1.164 5.072-2.896l-.003.006h6.47z"/>
        <path fill="#FFF" d="M45.635 12.68c-1.37.001-2.208.994-2.208 2.222 0 1.226.99 2.222 2.208 2.222a2.217 2.217 0 0 0 2.207-2.222c0-1.228-.894-2.223-2.207-2.223"/>
    </g>
</svg>
