<svg xmlns="http://www.w3.org/2000/svg" width="18" height="18" viewBox="0 0 18 18">
    <defs>
        <path id="a" d="M0 16.947h16.947V0H0z"/>
    </defs>
    <g fill="none" fill-rule="evenodd">
        <path fill="#FBFBFB" stroke="#D8D8D8" d="M-202.629-6.536H26.008v31.147h-228.637z"/>
        <path fill="#0F6DBE" d="M11.628 11.8a5.58 5.58 0 0 1-7.882 0 5.58 5.58 0 0 1 0-7.882 5.58 5.58 0 0 1 7.882 0 5.58 5.58 0 0 1 0 7.882m1.118-9a7.155 7.155 0 1 0-1.605 11.325 1.417 1.417 0 0 0 1.63.416l2.447 2.447a1.13 1.13 0 0 0 1.598-1.598l-2.448-2.447a1.417 1.417 0 0 0-.415-1.63A7.157 7.157 0 0 0 12.746 2.8"/>
    </g>
</svg>
