<svg xmlns="http://www.w3.org/2000/svg" width="80" height="80" viewBox="0 0 80 80">
    <g fill="none" fill-rule="evenodd">
        <circle cx="40" cy="40" r="40" fill="#0F6DBE"/>
        <path fill="#FFF" d="M70.513 46.602l-1.61-.493c1.346-7.118.153-14.75-3.933-21.383-3.36-5.452-8.175-9.417-13.612-11.713l.51-1.713c13.718 5.72 21.557 20.56 18.645 35.302zM33.929 71.37l.475-1.597a28.976 28.976 0 0 0 21.19-3.966c5.386-3.41 9.303-8.3 11.57-13.823l1.594.49C63.115 66.376 48.472 74.32 33.93 71.37zm-2.357-3.708a28.045 28.045 0 0 1-4.748-2.025l4.53-9.809a17.377 17.377 0 0 0 3.427 1.524c1.3.415 2.61.663 3.911.763l-1.578 10.718a28.026 28.026 0 0 1-5.542-1.17zm-3.437 1.93C14.415 63.875 6.577 49.033 9.49 34.292l1.664.51c-1.38 7.153-.198 14.83 3.909 21.501 3.347 5.432 8.136 9.387 13.55 11.687l-.478 1.604zm17.939-60.07l-.514 1.718a28.988 28.988 0 0 0-21.119 3.984c-5.352 3.387-9.25 8.231-11.524 13.709l-1.675-.513C16.887 14.515 31.53 6.57 46.074 9.522zm-22.608 25.49a17.888 17.888 0 0 0-.797 3.961l-10.555-1.72a28.889 28.889 0 0 1 1.217-5.608 28.846 28.846 0 0 1 2.05-4.786l9.628 4.698a17.89 17.89 0 0 0-1.543 3.455zM56.73 45.5c.384-1.326.602-2.661.678-3.985l10.6 1.392a28.87 28.87 0 0 1-1.047 5.64 28.343 28.343 0 0 1-1.905 4.85L55.293 49a18 18 0 0 0 1.436-3.501zm-8.058 9.065c-7.655 4.845-17.737 2.48-22.518-5.277-4.777-7.76-2.446-17.98 5.21-22.824 7.656-4.843 17.738-2.48 22.518 5.28 4.778 7.761 2.447 17.976-5.21 22.821zm-.517-41.294a28.245 28.245 0 0 1 4.77 1.968L48.506 25.1a17.3 17.3 0 0 0-3.44-1.482 17.344 17.344 0 0 0-3.925-.72l1.455-10.732c1.85.174 3.71.539 5.558 1.103zm4.067-3.152l.06-.204A1.639 1.639 0 0 0 51.18 7.89l-2.666-.817a1.61 1.61 0 0 0-2.025 1.063l-.06.204c-15.19-3.14-30.504 5.169-36.35 19.721l-.2-.06c-.84-.26-1.736.24-1.997 1.116l-.809 2.701c-.261.875.21 1.795 1.053 2.054l.2.06c-3.1 15.395 5.1 30.92 19.457 36.842l-.06.204c-.255.852.238 1.757 1.101 2.024l2.665.818c.863.263 1.77-.212 2.025-1.063l.063-.205c15.185 3.141 30.504-5.168 36.35-19.72l.199.06c.84.258 1.736-.242 1.998-1.119l.804-2.698c.262-.877-.206-1.796-1.049-2.054l-.201-.064c3.101-15.391-5.1-30.916-19.456-36.839z"/>
    </g>
</svg>
