<svg xmlns="http://www.w3.org/2000/svg" width="17" height="17" viewBox="0 0 17 17">
    <path fill="#FFF" fill-rule="evenodd" d="M15.917 7.996L9.465 1.53C9.121 1.2 8.91.98 8.463.98c-.447 0-.658.22-1.002.548L1.009 7.996C.649 8.356.445 8.592.445 9 .445 9.586.93 10 1.447 10H2.45v6.014c0 .55.451 1.002 1.003 1.002h3.006v-5.011h4.01v5.01h3.006c.551 0 1.002-.45 1.002-1.001V10h1.003c.516 0 1.002-.415 1.002-1.002 0-.407-.204-.642-.564-1.003M3.953 1.983h-.501c-.552 0-1.003.45-1.003 1.002v2.149l2.452-2.457a1.003 1.003 0 0 0-.948-.694"/>
</svg>
