<?xml version="1.0" encoding="utf-8"?>
<!-- Generator: Adobe Illustrator 16.0.0, SVG Export Plug-In . SVG Version: 6.00 Build 0)  -->
<!DOCTYPE svg PUBLIC "-//W3C//DTD SVG 1.1//EN" "http://www.w3.org/Graphics/SVG/1.1/DTD/svg11.dtd">
<svg version="1.1" id="Layer_1" xmlns="http://www.w3.org/2000/svg" xmlns:xlink="http://www.w3.org/1999/xlink" x="0px" y="0px"
	 width="90px" height="297px" viewBox="0 0 90 297" enable-background="new 0 0 90 297" xml:space="preserve">
<g>
	<g>
		<circle fill="#FFFFFF" cx="44" cy="44" r="42"/>
		<defs>
			<filter id="Adobe_OpacityMaskFilter" filterUnits="userSpaceOnUse" x="1" y="1" width="86" height="86">
				<feColorMatrix  type="matrix" values="1 0 0 0 0  0 1 0 0 0  0 0 1 0 0  0 0 0 1 0"/>
			</filter>
		</defs>
		<mask maskUnits="userSpaceOnUse" x="1" y="1" width="86" height="86" id="b_2_">
			<g filter="url(#Adobe_OpacityMaskFilter)">
				<path id="a_2_" fill="#FFFFFF" d="M1,1h86v86H1V1z"/>
			</g>
		</mask>
		<path mask="url(#b_2_)" fill="#88AD44" d="M65.7,70.148H54.368V46.968H34.26v23.181H22.927V17.284h11.334v21.131h19.959V17.284
			H65.7V70.148z M44,1C20.254,1,1,20.253,1,44.001C1,67.747,20.254,87,44,87c23.752,0,43-19.253,43-42.999C87,20.253,67.752,1,44,1z
			"/>
	</g>
	<g>
		<circle fill="#FFFFFF" cx="44.031" cy="149.189" r="42.114"/>
		<defs>
			<filter id="Adobe_OpacityMaskFilter_1_" filterUnits="userSpaceOnUse" x="1" y="105.304" width="86" height="86">
				<feColorMatrix  type="matrix" values="1 0 0 0 0  0 1 0 0 0  0 0 1 0 0  0 0 0 1 0"/>
			</filter>
		</defs>
		<mask maskUnits="userSpaceOnUse" x="1" y="105.304" width="86" height="86" id="b_1_">
			<g filter="url(#Adobe_OpacityMaskFilter_1_)">
				<path id="a_1_" fill="#FFFFFF" d="M1.001,105.306H87v85.998H1.002L1.001,105.306z"/>
			</g>
		</mask>
		<path mask="url(#b_1_)" fill="#88AD44" d="M55.1,160.896c-0.001-1.207,0.975-2.187,2.182-2.189c0.004,0,0.005,0,0.009,0
			c1.207,0,2.186,0.978,2.186,2.186c0,0.001,0,0.002,0,0.003c0.001,1.208-0.979,2.188-2.186,2.189
			c-1.209,0.001-2.19-0.978-2.191-2.186C55.1,160.897,55.1,160.896,55.1,160.896z M36.331,153.341
			c0.153,1.369,1.151,7.872,6.18,8.788c0.15,0.385,0.447,0.687,0.824,0.843c-0.071,1.603,0.156,6.78,6.041,6.984
			c8.934,0.302,8.89-5.055,8.732-6.45c1.442-0.451,2.247-1.986,1.795-3.428c-0.452-1.443-1.986-2.246-3.429-1.795
			c-1.442,0.451-2.246,1.986-1.795,3.428c0.324,1.035,1.227,1.78,2.303,1.903c0.223,1.382,0.271,5.603-7.516,5.332
			c-4.964-0.173-5.111-4.592-5.038-5.959c0.42-0.161,0.743-0.504,0.886-0.93c4.927-1.187,5.752-7.825,5.844-8.733
			c14.259,1.396,17.732,7.835,19.364,15.741c0.476,2.342-53.729,1.998-53.353,0.052C18.732,161.051,21.957,154.769,36.331,153.341z
			 M56.838,125.808c0.627,1.654,0.977,3.516,0.977,5.558c0,6.919-3.16,13.813-8.65,16.354v5.437c0.314,0.02,0.615,0.048,0.919,0.073
			c-0.159,0.957-1.2,6.441-4.905,7.595c-0.261-0.43-0.732-0.727-1.276-0.727c-0.577,0-1.065,0.331-1.318,0.803
			c-3.702-0.934-4.739-6.253-4.953-7.674c0.3-0.022,0.595-0.051,0.903-0.071v-5.437c-5.49-2.542-8.647-9.436-8.647-16.354
			c0-2.042,0.348-3.904,0.973-5.558h25.977L56.838,125.808z M43.945,113.714c2.942,0,5.046,1.979,5.487,4.591
			c2.106,0.809,3.961,2.163,5.372,3.923h-6.086c-0.977,1.626-2.744,2.718-4.772,2.718c-2.025,0-3.792-1.092-4.771-2.719h-6.277
			c1.451-1.813,3.392-3.19,5.579-4.033C38.93,115.639,40.918,113.717,43.945,113.714L43.945,113.714z M1,148.302
			c0,23.749,19.249,43.002,43,43.002c23.747,0,43-19.253,43-43.002c0-23.744-19.253-42.998-43-42.998
			c-23.75,0.001-42.999,19.255-42.999,43L1,148.302z"/>
		<path fill="#88AD44" d="M43.575,117.24c1.307,0,2.192,0.983,2.192,2.194s-0.981,2.197-2.192,2.197
			c-1.213,0-2.197-0.984-2.198-2.197C41.377,118.223,42.211,117.24,43.575,117.24 M43.574,122.639
			c1.768,0.001,3.203-1.432,3.204-3.2c0-0.002,0-0.005,0-0.007c0-1.767-1.294-3.202-3.203-3.202
			c-1.989,0.002-3.206,1.435-3.206,3.202c-0.003,1.768,1.428,3.204,3.196,3.207C43.568,122.639,43.572,122.639,43.574,122.639"/>
	</g>
	<g>
		<ellipse fill="#FFFFFF" cx="44.339" cy="252.231" rx="42.331" ry="41.728"/>
		<g transform="translate(0 .15)">
			<defs>
				<filter id="Adobe_OpacityMaskFilter_2_" filterUnits="userSpaceOnUse" x="1" y="209.206" width="86" height="86">
					<feColorMatrix  type="matrix" values="1 0 0 0 0  0 1 0 0 0  0 0 1 0 0  0 0 0 1 0"/>
				</filter>
			</defs>
			<mask maskUnits="userSpaceOnUse" x="1" y="209.206" width="86" height="86" id="b_3_">
				<g filter="url(#Adobe_OpacityMaskFilter_2_)">
					<path id="a_3_" fill="#FFFFFF" d="M1.001,209.207H87v85.998H1.001V209.207z"/>
				</g>
			</mask>
			<path mask="url(#b_3_)" fill="#88AD44" d="M28.534,233.915l-0.014-0.173c-0.026-0.196-0.038-0.395-0.037-0.593
				c-0.008-2.009,1.149-4.034,2.962-5.436c0.588-0.458,0.695-1.308,0.24-1.893c-0.443-0.581-1.279-0.698-1.868-0.261
				c-0.008,0.006-0.016,0.012-0.023,0.018l-0.003-0.003c-2.346,1.816-3.997,4.535-4.005,7.576c0,0.261,0.011,0.54,0.045,0.825
				l0.005,24.915c0,0.028,0.012,0.048,0.012,0.071l0.002,9.294c0,4.9,1.111,7.584,3.128,9.607c2.026,2.018,4.418,3.128,7.276,3.128
				c2.854,0,5.252-1.11,7.269-3.132c2.021-2.019,3.125-4.704,3.125-9.605v-14.915H28.536L28.534,233.915z M67.564,274.874
				l-15.955-11.172v-13.215c3.922-0.407,7.86,0.616,11.071,2.874C69.668,258.248,71.677,267.6,67.564,274.874 M46.568,281.804
				c3.126-3.006,5.041-7.395,5.041-12.383v-2.398l14.414,10.097C61.31,282.965,53.277,284.806,46.568,281.804 M36.25,283.471
				c-7.283,0.004-12.887-5.897-12.881-14.051l-0.003-36.625c0.003-6.403,5.601-12.299,12.884-12.301
				c7.274,0.002,12.878,5.899,12.88,12.298l-0.002,36.629C49.128,277.574,43.524,283.475,36.25,283.471 M44,209.206
				c-23.749,0-43,19.252-43,43c0,23.749,19.25,43,43,43c23.749,0,43-19.251,43-43C87,228.458,67.749,209.206,44,209.206"/>
		</g>
	</g>
</g>
</svg>
