<svg xmlns="http://www.w3.org/2000/svg" xmlns:xlink="http://www.w3.org/1999/xlink" width="94" height="94" viewBox="0 0 94 94">
    <defs>
        <path id="a" d="M.001.068h93.931V94H.002z"/>
    </defs>
    <g fill="none" fill-rule="evenodd">
        <circle cx="47" cy="48" r="46" fill="#FFF"/>
        <mask id="b" fill="#fff">
            <use xlink:href="#a"/>
        </mask>
        <path fill="#88AD45" d="M59.09 60.787a2.387 2.387 0 0 1 2.392-2.391 2.388 2.388 0 0 1 2.388 2.391 2.39 2.39 0 1 1-4.78 0zM38.59 52.535c.167 1.495 1.257 8.598 6.75 9.599.164.42.488.75.9.92-.078 1.75.17 7.406 6.598 7.629 9.757.33 9.71-5.521 9.538-7.044a2.989 2.989 0 1 0-1.23.117c.244 1.51.297 6.12-8.209 5.824-5.422-.189-5.582-5.015-5.502-6.51.46-.176.812-.55.967-1.016 5.382-1.295 6.284-8.546 6.383-9.538 15.574 1.524 19.368 8.558 21.15 17.193.52 2.558-58.684 2.182-58.273.056 1.705-8.808 5.227-15.67 20.928-17.23zm22.398-30.073c.686 1.807 1.066 3.84 1.066 6.07 0 7.558-3.45 15.087-9.447 17.864v5.938c.343.022.673.053 1.004.08-.173 1.045-1.31 7.035-5.357 8.296-.285-.47-.8-.794-1.394-.794-.63 0-1.164.361-1.44.877-4.044-1.02-5.177-6.83-5.41-8.382.328-.024.65-.055.986-.077v-5.938C35 43.62 31.551 36.09 31.551 28.533c0-2.23.38-4.264 1.063-6.07h28.373zM46.906 9.252c3.213 0 5.511 2.162 5.993 5.014a13.924 13.924 0 0 1 5.867 4.285h-6.648c-1.066 1.776-2.997 2.969-5.212 2.969-2.212 0-4.143-1.193-5.212-2.97h-6.856c1.585-1.98 3.704-3.484 6.093-4.405.497-2.79 2.669-4.89 5.975-4.894zM0 47.031c0 25.94 21.024 46.97 46.966 46.97 25.936 0 46.966-21.03 46.966-46.97 0-25.935-21.03-46.965-46.966-46.965C21.025.067.001 21.097.001 47.033z" mask="url(#b)"/>
        <path fill="#88AD45" d="M46.502 13.103c1.427 0 2.394 1.074 2.394 2.397 0 1.323-1.071 2.4-2.394 2.4a2.402 2.402 0 0 1-2.401-2.4c0-1.323.911-2.397 2.4-2.397m0 5.897A3.497 3.497 0 0 0 50 15.497C50 13.567 48.586 12 46.502 12 44.329 12.003 43 13.567 43 15.497A3.497 3.497 0 0 0 46.502 19"/>
    </g>
</svg>
