<svg xmlns="http://www.w3.org/2000/svg" width="91" height="91" viewBox="0 0 91 91">
    <g fill="none" fill-rule="evenodd">
        <path fill="#0081C6" d="M91 45.5C91 70.629 70.63 91 45.501 91 20.371 91 0 70.629 0 45.5S20.37 0 45.501 0C70.63 0 91 20.371 91 45.5"/>
        <path fill="#FFF" d="M52.428 63.68H38.572l1.27-3.18h11.042l1.544 3.18zm21.273-.807L69.724 55H21.07l-3.85 7.873C16.165 66 19.242 66 19.242 66h52.44c3.464 0 2.02-3.127 2.02-3.127zM68.18 50.601a1.915 1.915 0 0 1-1.91 1.918H24.8c-1.055 0-1.91-.86-1.91-1.918V24.885c0-1.058.855-1.918 1.91-1.918h41.47c1.054 0 1.91.86 1.91 1.918v25.716zM68.09 21H22.91c-1.055 0-1.91.86-1.91 1.918V54h49V22.918A1.915 1.915 0 0 0 68.09 21z"/>
        <path fill="#FFF" d="M52.821 36.332l-4.358 1.91 5.975 6.437.438.461c.3.318-.039.522-.039.522l-2.56 2.204c-.296.265-.536.068-.606-.007l-.007.005-6.375-6.867-2.114 3.628c-.515.917-.929.07-.929.07l-5.24-15.398c-.055-.371.27-.29.27-.29l15.365 6.535c.918.418.18.79.18.79"/>
    </g>
</svg>
