<svg xmlns="http://www.w3.org/2000/svg" xmlns:xlink="http://www.w3.org/1999/xlink" width="92" height="92" viewBox="0 0 92 92">
    <defs>
        <path id="a" d="M0 .612h91.389V92H0z"/>
        <path id="c" d="M29 38h52v52H29z"/>
    </defs>
    <g fill="none" fill-rule="evenodd">
        <g>
            <mask id="b" fill="#fff">
                <use xlink:href="#a"/>
            </mask>
            <path fill="#0081C6" d="M91.389 46.306C91.389 71.541 70.93 92 45.695 92 20.458 92 0 71.541 0 46.306 0 21.07 20.458.612 45.695.612c25.236 0 45.694 20.458 45.694 45.694" mask="url(#b)"/>
        </g>
        <path fill="#FFF" d="M61.873 75.154l4.431-4.554c1.506-1.846.099-3.663.099-3.663l-9.28-9.158c-1.607-1.309-2.845.074-2.845.074l-2.96 3.488c-.876 1.09-2.19.871-2.19.871-6.102-.07-12.31-5.089-12.31-5.089-8.693-7.706-7.855-13.993-7.855-13.993 0-2.072 4.173-5.42 4.173-5.42 1.71-1.415.334-3.292.334-3.292C28.942 28.601 23.17 24.24 23.17 24.24s-1.107-.775-2.712.46l-4.093 4.69s-3.07 4.199 0 12.758c0 0 4.383 11.45 14.793 20.61 0 0 11.667 10.36 22.024 12.596 0 0 6.74 1.579 8.692-.2M46.784 29c-.604 0-1.198.038-1.784.104v5.744c.58-.1 1.174-.166 1.784-.166 5.876 0 10.638 4.856 10.638 10.844 0 .5-.044.988-.108 1.474h5.613c.041-.489.073-.978.073-1.477C63 36.397 55.737 29 46.784 29"/>
        <path fill="#FFF" d="M45 16v6.502c13.531 0 24.495 10.965 24.495 24.498H76c0-17.12-13.878-31-31-31"/>
    </g>
</svg>
