<?xml version="1.0" encoding="utf-8"?>
<!-- Generator: Adobe Illustrator 16.0.0, SVG Export Plug-In . SVG Version: 6.00 Build 0)  -->
<!DOCTYPE svg PUBLIC "-//W3C//DTD SVG 1.1//EN" "http://www.w3.org/Graphics/SVG/1.1/DTD/svg11.dtd">
<svg version="1.1" id="Layer_1" xmlns="http://www.w3.org/2000/svg" xmlns:xlink="http://www.w3.org/1999/xlink" x="0px" y="0px"
	 width="27px" height="23px" viewBox="0 0 27 23" enable-background="new 0 0 27 23" xml:space="preserve">
<title>Mobile Menu Icon</title>
<desc>Created with Sketch.</desc>
<g id="Symbols">
	<g id="menu" transform="translate(-1.000000, 0.000000)">
		<g id="Group-8" transform="translate(0.973443, 0.723145)">
			<path id="Rectangle-8" fill="#ffffff" d="M2.668,0h22.232c1.175,0,2.126,0.952,2.126,2.126l0,0c0,1.175-0.951,2.127-2.126,2.127
				H2.668c-1.175,0-2.127-0.952-2.127-2.127l0,0C0.541,0.952,1.493,0,2.668,0z"/>
			<path id="Rectangle-8-Copy" fill="#ffffff" d="M2.668,8.811h13.931c1.175,0,2.126,0.952,2.126,2.126l0,0
				c0,1.174-0.951,2.126-2.778,2.126H2.016c-0.522,0-1.475-0.952-1.475-2.126l0,0C0.541,9.763,1.493,8.811,2.668,8.811z"/>
			<path id="Rectangle-8-Copy-2" fill="#ffffff" d="M2.668,17.622h22.232c1.175,0,2.126,0.952,2.126,2.127l0,0
				c0,1.175-0.951,2.126-2.126,2.126H2.668c-1.175,0-2.127-0.951-2.127-2.126l0,0C0.541,18.574,1.493,17.622,2.668,17.622z"/>
		</g>
	</g>
</g>
</svg>
