<svg xmlns="http://www.w3.org/2000/svg" width="19.76" height="16" viewBox="0 0 21 17">
    <path fill="#FFF" fill-rule="evenodd" d="M21 2.012a8.593 8.593 0 0 1-2.475.676A4.306 4.306 0 0 0 20.42.314a8.691 8.691 0 0 1-2.736 1.042A4.31 4.31 0 0 0 14.539 0a4.3 4.3 0 0 0-4.197 5.27A12.247 12.247 0 0 1 1.462.786a4.286 4.286 0 0 0 1.333 5.73 4.305 4.305 0 0 1-1.951-.537l-.001.053a4.3 4.3 0 0 0 3.456 4.21 4.322 4.322 0 0 1-1.946.072 4.312 4.312 0 0 0 4.025 2.981 8.667 8.667 0 0 1-5.351 1.836c-.348 0-.691-.02-1.027-.059A12.231 12.231 0 0 0 6.604 17c7.925 0 12.259-6.54 12.259-12.21 0-.187-.005-.372-.013-.556A8.743 8.743 0 0 0 21 2.012"/>
</svg>
