<?xml version="1.0" encoding="utf-8"?>
<!-- Generator: Adobe Illustrator 16.0.0, SVG Export Plug-In . SVG Version: 6.00 Build 0)  -->
<!DOCTYPE svg PUBLIC "-//W3C//DTD SVG 1.1//EN" "http://www.w3.org/Graphics/SVG/1.1/DTD/svg11.dtd">
<svg version="1.1" id="Layer_1" xmlns="http://www.w3.org/2000/svg" xmlns:xlink="http://www.w3.org/1999/xlink" x="0px" y="0px"
	 width="60px" height="352px" viewBox="0 0 60 352" enable-background="new 0 0 60 352" xml:space="preserve">
<g>
	<circle fill="#0F6DBE" cx="30" cy="125.934" r="30"/>
	<g enable-background="new    ">
		<path fill="#FFFFFF" d="M24.663,127.966l-3.656-9.633h1.564l2.074,5.713c0.469,1.336,0.744,2.203,0.826,2.602h0.07
			c0.064-0.311,0.268-0.953,0.611-1.93c0.343-0.975,1.112-3.104,2.307-6.385h1.564l-3.656,9.633H24.663z"/>
		<path fill="#FFFFFF" d="M37.785,125.338c0,0.896-0.334,1.588-1.002,2.074s-1.605,0.729-2.813,0.729
			c-1.277,0-2.273-0.202-2.988-0.606v-1.354c0.463,0.234,0.959,0.419,1.49,0.554c0.529,0.135,1.041,0.202,1.533,0.202
			c0.762,0,1.348-0.121,1.758-0.364s0.615-0.614,0.615-1.112c0-0.375-0.162-0.695-0.488-0.962c-0.324-0.267-0.959-0.582-1.902-0.945
			c-0.896-0.334-1.533-0.625-1.912-0.875c-0.377-0.248-0.658-0.531-0.844-0.848c-0.184-0.316-0.276-0.694-0.276-1.134
			c0-0.785,0.319-1.404,0.958-1.858s1.515-0.682,2.628-0.682c1.037,0,2.051,0.211,3.041,0.633l-0.519,1.187
			c-0.967-0.398-1.843-0.598-2.628-0.598c-0.691,0-1.213,0.108-1.564,0.325s-0.527,0.516-0.527,0.896
			c0,0.258,0.065,0.478,0.198,0.659c0.131,0.182,0.344,0.354,0.637,0.519s0.855,0.401,1.688,0.712
			c1.143,0.416,1.914,0.835,2.316,1.257C37.584,124.169,37.785,124.699,37.785,125.338z"/>
	</g>
	<path fill="none" stroke="#D7D7D7" stroke-linecap="square" d="M30.5,1.45v86.998 M30.5,163.434V351.5"/>
</g>
</svg>
