<svg xmlns="http://www.w3.org/2000/svg" xmlns:xlink="http://www.w3.org/1999/xlink" width="21" height="14" viewBox="0 0 21 14">
    <defs>
        <path id="a" d="M0 .221h19.828v13.347H0z"/>
    </defs>
    <g fill="none" fill-rule="evenodd" transform="translate(.444 .13)">
        <mask id="b" fill="#fff">
            <use xlink:href="#a"/>
        </mask>
        <path fill="#FFF" d="M12.954 7.49l-5.457 3.157c-.572.334-1.044.064-1.044-.596l-.008-6.31c-.002-.66.468-.93 1.043-.6l5.464 3.145c.575.33.575.872.002 1.203m6.74-4.309c0-1.562-1.283-2.828-2.863-2.828-2.144-.09-4.333-.13-6.568-.13h-.7c-2.232 0-4.424.04-6.568.13C1.415.352.133 1.618.133 3.18A48.227 48.227 0 0 0 0 6.893c-.002 1.238.04 2.473.133 3.715 0 1.56 1.281 2.825 2.862 2.825 2.257.1 4.565.14 6.918.135 2.354.005 4.66-.036 6.918-.135 1.58 0 2.864-1.266 2.864-2.825.095-1.242.137-2.477.133-3.715a46.674 46.674 0 0 0-.133-3.713" mask="url(#b)"/>
    </g>
</svg>
